<svg width="382" height="740" viewBox="0 0 382 740" fill="none" xmlns="http://www.w3.org/2000/svg">
<g opacity="0.3">
<mask id="mask0" mask-type="alpha" maskUnits="userSpaceOnUse" x="0" y="0" width="382" height="740">
<path d="M382 0H0V740H382V0Z" fill="#C4C4C4"/>
</mask>
<g mask="url(#mask0)">
<path d="M121.103 364.05C133.098 356.709 130.962 343.141 123.537 337.792C121.827 338.059 120.146 338.357 118.523 338.702C117.535 338.917 116.587 339.144 115.633 339.377C113.531 341.071 111.959 343.178 110.905 345.279C109.376 348.329 108.629 351.268 108.079 353.663C107.065 358.478 106.727 361.234 106.69 361.228C106.727 361.228 106.779 358.544 107.415 353.651C107.781 351.22 108.302 348.199 109.7 344.863C110.333 343.336 111.263 341.742 112.452 340.229C107.979 341.524 103.964 343.092 100.453 344.768C99.0099 346.072 97.81 347.594 96.845 348.946C95.502 350.878 94.5712 352.715 94.0128 354.286C92.8645 357.461 93.443 359.451 93.4029 359.425C93.4573 359.457 92.5639 357.602 93.3657 354.177C93.7437 352.497 94.4968 350.502 95.7167 348.34C96.0403 347.809 96.3696 347.258 96.7448 346.692C96.5472 346.798 96.3324 346.905 96.1434 347.008C90.3847 350.289 86.3727 353.634 83.7898 356.023C81.1953 358.42 79.9782 359.856 79.9696 359.833C79.9782 359.856 81.0177 358.36 83.3716 355.779C85.7169 353.215 89.4225 349.546 95.0094 345.788C95.7454 345.288 96.5214 344.789 97.3232 344.3C96.7304 344.257 96.1749 344.177 95.6365 344.068C93.4774 343.626 91.8021 342.796 90.4934 342.058C87.9076 340.531 86.6419 339.483 86.6218 339.509C86.6362 339.477 88.045 340.281 90.7168 341.435C92.9819 342.377 96.5987 343.525 100.539 342.348C100.765 342.164 101.344 342.018 101.344 342.018C104.024 340.611 106.982 339.25 110.227 338.033C108.961 337.714 107.755 337.324 106.69 336.879C103.955 335.713 101.81 334.324 100.138 333.109C96.8049 330.632 95.3559 328.82 95.3358 328.849C95.353 328.817 96.9738 330.388 100.419 332.506C102.151 333.546 104.345 334.723 107.039 335.647C108.972 336.296 111.235 336.824 113.626 336.836C114.846 336.437 116.106 336.052 117.409 335.687C118.468 335.389 119.553 335.113 120.662 334.852C122.689 323.844 110.728 313.704 97.6668 321.691C84.1018 329.98 82.9994 347.591 71.8398 365.819C89.9322 358.641 112.228 369.468 121.103 364.05Z" fill="#C5CBD5"/>
<path d="M122.105 301.388C122.752 300.713 123.631 300.088 124.696 299.651C125.123 299.648 125.555 299.648 125.999 299.66C126.726 299.674 127.48 299.711 128.236 299.76C130.904 302.347 130.524 307.463 124.679 309.088C120.355 310.288 111.836 304.423 103.396 305.459C109.923 299.803 112.082 293.501 118.688 291.667C125.048 289.898 129.204 294.621 127.279 298.445C126.781 298.442 126.294 298.451 125.813 298.468C125.214 298.485 124.636 298.514 124.08 298.557C123.055 298.345 122.139 297.954 121.371 297.552C120.3 296.981 119.476 296.367 118.829 295.836C117.551 294.77 117.01 294.058 117.002 294.067C117.013 294.061 117.463 294.842 118.654 296.028C119.25 296.616 120.037 297.311 121.102 297.969C121.515 298.224 121.993 298.468 122.508 298.698C121.002 298.856 119.599 299.091 118.313 299.373C118.313 299.373 118.061 299.376 117.938 299.421C116.142 299.508 114.702 298.778 113.82 298.241C112.783 297.587 112.254 297.173 112.251 297.185C112.254 297.173 112.706 297.667 113.663 298.442C114.155 298.827 114.794 299.272 115.67 299.622C115.893 299.709 116.125 299.783 116.377 299.855C115.979 299.964 115.607 300.076 115.24 300.191C112.491 301.072 110.544 302.086 109.301 302.815C108.038 303.55 107.457 303.998 107.454 303.992C107.454 303.998 108.107 303.584 109.453 302.936C110.788 302.298 112.829 301.425 115.61 300.736C115.704 300.713 115.799 300.693 115.899 300.673C115.682 300.843 115.492 301.015 115.298 301.181C114.57 301.862 114.058 302.519 113.737 303.096C113.064 304.273 113.276 305.026 113.25 305.008C113.265 305.02 113.207 304.25 114 303.194C114.396 302.671 114.966 302.086 115.727 301.5C116.271 301.089 116.93 300.644 117.677 300.294C119.338 299.993 121.211 299.769 123.247 299.688C122.594 300.133 122.047 300.633 121.629 301.133C120.713 302.224 120.197 303.274 119.805 304.124C119.069 305.85 118.789 306.817 118.771 306.817C118.786 306.82 119.195 305.847 120.089 304.19C120.552 303.366 121.16 302.364 122.105 301.388Z" fill="#C5CBD5"/>
<path d="M192.488 139.808C192.239 138.232 192.019 136.67 191.835 135.131C191.606 133.242 191.437 131.396 191.308 129.582C190.02 126.478 188.124 123.817 186.246 121.643C183.611 118.617 180.911 116.387 178.643 114.69C174.055 111.322 171.154 110.05 171.18 110.016C171.157 110.053 174.284 110.981 179.267 114.004C181.738 115.525 184.688 117.581 187.654 120.527C188.8 121.681 189.948 123.042 191.042 124.52C190.887 119.642 191.071 115.063 191.466 110.823C191.466 110.823 191.343 109.987 191.466 109.594C190.89 103.829 187.474 99.7261 185.043 97.28C182.122 94.4148 180.324 93.0022 180.355 92.9678C180.335 93.008 182.374 94.1076 185.727 96.6599C187.382 97.9691 189.355 99.7118 191.079 102.284C191.503 102.924 191.907 103.613 192.279 104.36C192.491 103.048 192.712 101.779 192.972 100.553C194.868 91.2652 197.646 84.4753 199.719 80.0482C201.806 75.6096 203.19 73.4592 203.155 73.4506C203.19 73.4592 201.99 75.802 200.254 80.4645C198.539 85.1127 196.34 92.1266 195.169 101.377C195.134 101.681 195.106 102.009 195.071 102.327C195.61 101.549 196.145 100.811 196.666 100.105C198.814 97.3633 200.999 95.3191 202.981 93.9296C206.99 91.0585 209.868 91.2394 209.799 91.182C209.856 91.2193 206.964 91.5265 203.462 94.7191C201.723 96.2809 199.842 98.4744 198.052 101.254C196.807 103.237 195.478 105.612 194.561 108.187C194.261 113.665 194.37 119.726 195.074 126.251C196.403 123.886 197.975 121.827 199.619 120.191C203.195 116.59 206.838 114.294 209.799 112.516C215.795 109.077 219.246 107.584 219.229 107.535C219.257 107.578 215.867 109.488 210.163 113.384C207.35 115.379 203.937 117.92 200.807 121.543C198.639 124.032 196.744 127.207 195.673 130.851C195.876 132.212 196.091 133.578 196.34 134.976C196.755 137.268 197.273 139.622 197.835 142.005C208.731 148.818 227.47 144.365 230.574 124.813C232.871 110.358 206.929 87.0678 206.58 59.6611C188.909 83.9327 166.655 94.7708 163.145 116.878C159.754 138.158 179.293 148.332 192.488 139.808Z" fill="#C5CBD5"/>
<path d="M313.39 282.42C311.541 283.267 309.536 284.424 307.763 286.026C307.116 287.14 306.438 288.26 305.707 289.4C305.115 290.327 304.49 291.257 303.84 292.188C309.41 301.361 324.753 300.471 329.272 285.983C333.966 270.936 323.485 257.71 320.026 237.242C311.274 254.557 287.853 261.953 284.777 271.795C280.625 285.102 290.914 293.279 299.825 292.05C300.922 290.701 301.97 289.357 302.947 288.019C303.537 287.201 304.095 286.394 304.651 285.59C305.112 282.963 304.923 280.408 304.35 278.212C303.525 275.01 302.185 272.424 301.06 270.351C298.717 266.254 297.197 264.072 297.231 264.052C297.202 264.083 298.886 266.013 301.561 269.911C302.85 271.884 304.404 274.376 305.513 277.686C306.022 279.196 306.36 280.956 306.458 282.828C308.92 278.889 310.882 275.065 312.397 271.505C312.632 269.607 312.54 267.715 312.382 266.105C312.139 263.825 311.644 261.896 311.048 260.408C309.86 257.377 308.156 256.36 308.199 256.352C308.139 256.363 309.986 257.075 311.598 260.044C312.4 261.491 313.121 263.414 313.608 265.769C313.714 266.366 313.82 266.98 313.906 267.638C313.983 267.425 314.072 267.207 314.141 267.003C316.297 260.787 317.108 255.703 317.486 252.263C317.858 248.81 317.841 246.972 317.858 246.978C317.835 246.975 318.038 248.738 317.947 252.157C317.863 255.562 317.483 260.664 315.773 267.104C315.544 267.956 315.292 268.832 315.014 269.722C315.475 269.352 315.939 269.03 316.409 268.743C318.284 267.606 320.06 267.058 321.5 266.699C324.384 266.033 325.999 265.918 325.996 265.883C326.008 265.921 324.447 266.303 321.735 267.287C319.456 268.149 316.042 269.785 313.889 273.273C313.843 273.563 313.514 274.06 313.514 274.06C312.431 276.862 311.12 279.831 309.507 282.883C310.641 282.254 311.781 281.717 312.858 281.315C315.621 280.29 318.104 279.825 320.117 279.552C324.169 279.061 326.403 279.366 326.4 279.331C326.409 279.366 324.204 279.346 320.298 280.172C318.353 280.609 315.979 281.258 313.39 282.42Z" fill="#C5CBD5"/>
<path d="M105.942 260.658C104.851 259.105 103.832 257.557 102.855 256.024C100.255 253.905 97.3258 252.458 94.6454 251.436C90.8969 250.024 87.4634 249.346 84.6627 248.927C79.0357 248.14 75.8772 248.393 75.8915 248.353C75.8829 248.396 79.0759 247.73 84.8948 248.023C87.787 248.192 91.358 248.6 95.3613 249.785C96.9163 250.253 98.5685 250.908 100.232 251.692C97.7896 247.468 95.7879 243.351 94.1299 239.43C94.1299 239.43 93.6288 238.752 93.5514 238.344C90.3184 233.541 85.3701 231.552 82.0712 230.552C78.1509 229.418 75.8972 229.025 75.9115 228.979C75.9115 229.028 78.2196 229.031 82.3833 229.685C84.4566 230.047 87.0224 230.65 89.7572 232.094C90.4301 232.453 91.1088 232.869 91.7961 233.352C91.3551 232.097 90.9542 230.868 90.6048 229.668C87.8815 220.587 87.1227 213.292 86.8563 208.405C86.5958 203.507 86.7991 200.955 86.7704 200.961C86.7991 200.955 86.8477 203.591 87.5207 208.52C88.2108 213.427 89.5882 220.645 92.9243 229.352C93.0389 229.637 93.1735 229.941 93.288 230.239C93.394 229.295 93.52 228.391 93.646 227.521C94.2416 224.09 95.2009 221.245 96.2863 219.086C98.4683 214.65 101.086 213.438 100.994 213.427C101.06 213.43 98.663 215.069 97.0823 219.554C96.2919 221.75 95.6706 224.572 95.4071 227.871C95.2525 230.214 95.2038 232.938 95.6161 235.634C97.9328 240.604 100.894 245.886 104.602 251.301C104.648 248.588 105.06 246.024 105.736 243.808C107.185 238.939 109.307 235.183 111.074 232.215C114.734 226.335 117.068 223.381 117.027 223.349C117.073 223.372 114.983 226.665 111.801 232.803C110.272 235.895 108.468 239.757 107.42 244.437C106.693 247.652 106.521 251.353 107.3 255.071C108.122 256.17 108.952 257.273 109.834 258.387C111.283 260.207 112.849 262.03 114.476 263.862C127.291 264.686 141.689 251.867 135.183 233.174C130.375 219.347 96.5239 211.164 83.2654 187.194C79.1675 216.967 64.6976 237.075 72.0514 258.212C79.1274 278.564 101.137 278.243 108.732 264.471C107.766 263.199 106.836 261.927 105.942 260.658Z" fill="#C5CBD5"/>
<path d="M186.707 482.007C185.02 482.408 183.362 482.836 181.775 483.31C180.81 483.597 179.877 483.899 178.946 484.206C176.982 486.06 175.579 488.283 174.691 490.462C173.405 493.62 172.89 496.609 172.526 499.037C171.887 503.918 171.761 506.694 171.733 506.686C171.767 506.68 171.604 504.007 171.862 499.08C172.036 496.626 172.325 493.571 173.457 490.134C173.969 488.57 174.765 486.91 175.842 485.302C171.481 486.942 167.598 488.822 164.233 490.769C162.896 492.181 161.816 493.786 160.957 495.216C159.769 497.243 158.987 499.149 158.549 500.757C157.655 504.013 158.388 505.954 158.342 505.928C158.403 505.957 157.369 504.177 157.893 500.703C158.142 498.994 158.738 496.944 159.786 494.702C160.069 494.139 160.356 493.562 160.685 492.971C160.493 493.097 160.29 493.218 160.109 493.341C154.623 497.054 150.886 500.703 148.494 503.284C146.095 505.888 144.992 507.404 144.981 507.383C144.992 507.404 145.909 505.833 148.053 503.08C150.195 500.335 153.609 496.387 158.881 492.207C159.577 491.653 160.313 491.093 161.08 490.542C160.479 490.545 159.917 490.51 159.376 490.442C157.188 490.172 155.453 489.474 154.093 488.837C151.398 487.519 150.052 486.574 150.035 486.6C150.047 486.569 151.51 487.261 154.268 488.202C156.593 488.969 160.298 489.827 164.127 488.346C164.342 488.142 164.906 487.952 164.906 487.952C167.469 486.339 170.312 484.754 173.454 483.287C172.159 483.066 170.931 482.773 169.837 482.411C167.011 481.47 164.768 480.249 163.007 479.164C159.494 476.959 157.91 475.268 157.89 475.294C157.907 475.268 159.64 476.704 163.248 478.541C165.049 479.446 167.331 480.448 170.092 481.16C172.065 481.656 174.359 482.007 176.744 481.834C177.935 481.335 179.161 480.852 180.43 480.387C181.458 480.011 182.517 479.652 183.602 479.302C184.771 468.168 172.059 458.992 159.66 467.973C146.779 477.301 147.048 494.949 137.332 513.987C154.82 505.417 177.892 514.469 186.314 508.374C197.703 500.12 194.521 486.758 186.707 482.007Z" fill="#C5CBD5"/>
<path d="M367.94 115.267C375.901 135.401 396.954 135.682 406.971 125.809C406.999 123.127 406.997 120.498 406.894 117.948C406.833 116.398 406.73 114.885 406.63 113.389C404.623 109.754 401.842 106.814 398.941 104.678C394.735 101.557 390.488 99.654 387.02 98.1984C380.01 95.402 375.932 94.1732 375.949 94.1186C375.946 94.1789 379.978 94.9484 387.2 97.1906C390.786 98.3792 395.213 99.9612 399.889 102.95C402.028 104.308 404.193 106.128 406.172 108.333C405.373 101.201 404.058 94.7043 402.432 88.9307C400.843 86.4014 398.867 84.1878 397.063 82.3618C394.494 79.8239 391.965 77.929 389.738 76.6801C385.242 74.1048 382.083 74.4665 382.135 74.4149C382.072 74.4895 385.104 73.6138 390.067 75.724C392.507 76.7318 395.33 78.3912 398.274 80.8057C398.993 81.4374 399.752 82.0948 400.499 82.7982C400.39 82.4681 400.281 82.1235 400.173 81.8077C396.725 72.2128 392.713 65.2506 389.778 60.6972C386.825 56.1408 384.987 53.9216 385.012 53.9015C384.987 53.9216 386.974 55.8882 390.253 60.1229C393.52 64.3577 398.091 70.9409 402.317 80.4009C402.884 81.6498 403.431 82.9475 403.964 84.3055C404.182 83.4184 404.451 82.5858 404.754 81.7991C405.977 78.641 407.675 76.3097 409.13 74.5211C412.105 70.9926 414.021 69.336 413.987 69.2987C414.03 69.3245 412.443 71.2625 410.003 75.0206C407.996 78.2075 405.321 83.4011 406.066 89.6944C406.298 90.0877 406.364 91.0065 406.364 91.0065C407.796 95.4364 409.064 100.283 410.072 105.528C410.885 103.685 411.779 101.959 412.735 100.455C415.201 96.605 417.861 93.7052 420.138 91.4917C424.748 87.0789 427.861 85.3391 427.824 85.3046C427.861 85.3333 425.066 87.3861 420.974 92.0745C418.952 94.4287 416.59 97.4519 414.505 101.305C413.016 104.084 411.627 107.371 410.988 110.994C411.278 112.958 411.533 114.971 411.742 117.038C411.911 118.726 412.039 120.446 412.16 122.189C428.259 128.14 446.695 112.619 438.035 90.7165C429.035 67.9522 402.718 61.6934 378.085 40C384.222 69.3389 362.055 100.383 367.94 115.267Z" fill="#C5CBD5"/>
<path d="M151.468 415.516C152.593 417.13 154.042 418.829 155.884 420.205C157.061 420.592 158.252 421.011 159.463 421.479C160.451 421.856 161.451 422.263 162.45 422.691C170.285 415.333 166.803 400.647 152.161 399.358C136.944 398.015 126.07 411.015 107.07 418.729C125.148 423.524 136.242 444.649 146.193 445.527C159.646 446.713 165.709 434.993 163.017 426.613C161.528 425.838 160.059 425.106 158.616 424.445C157.731 424.049 156.86 423.679 155.998 423.314C153.404 423.423 150.99 424.155 148.985 425.183C146.061 426.665 143.813 428.513 142.029 430.049C138.499 433.193 136.672 435.134 136.643 435.108C136.677 435.125 138.232 433.078 141.514 429.668C143.184 427.988 145.305 425.95 148.281 424.17C149.641 423.348 151.265 422.645 153.049 422.157C148.851 420.601 144.856 419.519 141.182 418.809C139.323 418.99 137.534 419.481 136.016 419.978C133.877 420.704 132.113 421.591 130.793 422.487C128.089 424.287 127.408 426.156 127.393 426.113C127.419 426.171 127.786 424.224 130.349 422.034C131.594 420.951 133.313 419.837 135.483 418.861C136.042 418.634 136.614 418.399 137.219 418.172C137.004 418.143 136.786 418.103 136.571 418.08C130.257 417.319 125.254 417.618 121.892 417.98C118.522 418.362 116.767 418.769 116.764 418.743C116.767 418.769 118.422 418.206 121.703 417.558C124.979 416.915 129.934 416.197 136.391 416.481C137.247 416.515 138.126 416.573 139.034 416.653C138.596 416.283 138.207 415.901 137.857 415.508C136.44 413.934 135.609 412.332 135.025 411.017C133.897 408.359 133.507 406.82 133.476 406.829C133.502 406.814 134.14 408.241 135.549 410.661C136.763 412.683 138.908 415.643 142.625 416.983C142.909 416.969 143.441 417.19 143.441 417.19C146.311 417.629 149.369 418.27 152.573 419.183C151.777 418.212 151.061 417.225 150.5 416.269C149.04 413.808 148.166 411.506 147.576 409.602C146.408 405.784 146.308 403.55 146.282 403.564C146.308 403.547 146.668 405.695 148.132 409.301C148.882 411.092 149.907 413.263 151.468 415.516Z" fill="#C5CBD5"/>
<path d="M267.243 190.065C267.55 188.357 267.813 186.666 268.011 185.024C268.131 184.028 268.223 183.049 268.312 182.075C267.395 179.54 265.903 177.367 264.262 175.693C261.883 173.253 259.348 171.593 257.267 170.296C253.049 167.769 250.546 166.552 250.571 166.523C250.554 166.56 253.071 167.473 257.487 169.67C259.669 170.807 262.355 172.285 265.056 174.691C266.287 175.776 267.493 177.172 268.538 178.797C268.761 174.149 268.581 169.845 268.137 165.986C267.372 164.198 266.324 162.57 265.356 161.215C263.967 159.323 262.536 157.841 261.233 156.808C258.604 154.686 256.539 154.585 256.577 154.557C256.528 154.597 258.567 154.362 261.542 156.225C263.011 157.129 264.652 158.49 266.293 160.342C266.696 160.824 267.112 161.321 267.521 161.855C267.481 161.631 267.45 161.398 267.415 161.183C266.187 154.677 264.323 149.802 262.911 146.584C261.476 143.348 260.52 141.738 260.54 141.732C260.52 141.738 261.594 143.202 263.269 146.262C264.933 149.314 267.195 154.011 268.942 160.508C269.171 161.364 269.391 162.26 269.595 163.181C269.826 162.636 270.081 162.133 270.362 161.66C271.476 159.768 272.802 158.453 273.924 157.459C276.207 155.516 277.601 154.657 277.587 154.631C277.607 154.651 276.39 155.725 274.44 157.873C272.813 159.699 270.56 162.751 270.396 166.85C270.497 167.126 270.448 167.723 270.448 167.723C270.912 170.709 271.235 173.948 271.336 177.41C272.046 176.313 272.805 175.3 273.569 174.441C275.554 172.234 277.564 170.657 279.254 169.48C282.673 167.138 284.855 166.351 284.838 166.328C284.858 166.351 282.847 167.37 279.732 169.94C278.183 171.237 276.373 172.923 274.62 175.171C273.377 176.787 272.146 178.748 271.364 181.005C271.347 182.294 271.301 183.606 271.221 184.949C271.161 186.049 271.072 187.163 270.958 188.297C280.7 193.786 294.153 185.793 290.84 170.861C287.403 155.343 271.127 148.574 257.521 132.103C258.441 151.528 240.99 169.07 243.235 179.219C246.276 192.939 259.792 195.334 267.243 190.065Z" fill="#C5CBD5"/>
<path d="M321.378 149.052C321.473 147.915 321.59 146.804 321.73 145.707C321.896 144.36 322.1 143.057 322.32 141.788C321.959 139.419 321.112 137.255 320.193 135.423C318.89 132.888 317.406 130.878 316.132 129.311C313.546 126.198 311.756 124.82 311.788 124.8C311.765 124.823 313.758 126.003 316.688 128.949C318.128 130.424 319.812 132.354 321.355 134.903C321.951 135.894 322.509 137.031 323.01 138.248C323.735 134.852 324.651 131.719 325.651 128.857C325.651 128.857 325.711 128.263 325.865 128.007C326.455 123.933 324.797 120.505 323.54 118.401C322.017 115.917 321.02 114.628 321.04 114.617C321.023 114.637 322.243 115.745 324.119 118.088C325.041 119.279 326.106 120.827 326.848 122.897C327.037 123.411 327.197 123.959 327.32 124.539C327.695 123.666 328.068 122.825 328.451 122.021C331.358 115.94 334.442 111.734 336.63 109.035C338.84 106.328 340.164 105.085 340.143 105.073C340.164 105.082 338.929 106.492 336.933 109.414C334.952 112.323 332.228 116.793 329.829 122.968C329.751 123.181 329.68 123.402 329.6 123.614C330.104 123.167 330.599 122.753 331.08 122.354C333.033 120.835 334.897 119.805 336.501 119.182C339.763 117.89 341.721 118.51 341.681 118.467C341.713 118.495 339.671 118.205 336.699 119.81C335.229 120.588 333.554 121.774 331.842 123.388C330.648 124.547 329.316 125.957 328.245 127.574C327.094 131.297 326.126 135.509 325.496 140.131C326.822 138.733 328.259 137.582 329.677 136.735C332.761 134.863 335.668 133.91 338.013 133.195C342.746 131.854 345.384 131.421 345.384 131.381C345.398 131.412 342.729 132.153 338.122 133.85C335.839 134.745 333.042 135.914 330.261 137.875C328.337 139.218 326.484 141.085 325.115 143.413C325.021 144.389 324.932 145.368 324.869 146.379C324.76 148.035 324.709 149.746 324.691 151.486C331.046 158.075 344.745 158.23 350.255 145.27C354.318 135.684 340.413 115.125 344.871 96.1445C328.503 109.848 311.278 113.491 305.055 128.151C299.07 142.259 310.808 152.655 321.378 149.052Z" fill="#C5CBD5"/>
<path d="M333.55 358.753C333.269 360.1 333.094 361.653 333.269 363.249C333.636 364.039 333.991 364.851 334.334 365.695C334.609 366.379 334.878 367.082 335.142 367.805C342.625 368.302 348.449 359.514 342.112 351.395C335.546 342.963 323.73 343.597 310.727 337.545C316.918 349.095 311.448 364.854 315.741 370.378C321.565 377.831 330.428 375.342 333.412 369.959C333.097 368.833 332.768 367.731 332.416 366.677C332.195 366.034 331.969 365.411 331.74 364.794C330.448 363.519 328.922 362.632 327.444 362.095C325.294 361.303 323.275 361.038 321.64 360.858C318.355 360.548 316.491 360.536 316.502 360.513C316.497 360.536 318.287 360.361 321.6 360.41C323.246 360.461 325.297 360.579 327.628 361.254C328.684 361.552 329.824 362.052 330.924 362.729C330.371 361.406 329.712 359.523 329.057 358.739C328.378 357.424 327.676 356.192 326.963 355.061C325.987 354.191 324.879 353.508 323.902 352.962C322.508 352.222 321.222 351.739 320.134 351.487C317.926 350.97 316.649 351.507 316.666 351.484C316.646 351.518 317.811 350.777 320.148 351.047C321.299 351.171 322.682 351.521 324.223 352.164C324.601 352.336 324.993 352.523 325.4 352.724C325.314 352.603 325.225 352.468 325.139 352.351C322.51 348.753 319.967 346.324 318.178 344.78C316.376 343.232 315.334 342.529 315.343 342.526C315.334 342.529 316.411 343.106 318.309 344.484C320.202 345.854 322.926 348.044 325.861 351.489C326.256 351.943 326.651 352.423 327.029 352.922C327.018 352.532 327.029 352.147 327.058 351.779C327.19 350.301 327.608 349.118 328 348.182C328.813 346.333 329.412 345.403 329.392 345.391C329.415 345.394 328.988 346.405 328.432 348.283C327.98 349.87 327.499 352.377 328.587 354.923C328.727 355.061 328.873 355.443 328.873 355.443C329.483 356.339 330.088 357.303 330.683 358.314C330.56 357.946 331.717 360.108 332.209 361.073C332.33 360.197 332.49 359.362 332.705 358.615C333.266 356.692 334.025 355.147 334.704 353.941C336.098 351.515 337.186 350.404 337.172 350.393C337.186 350.404 336.267 351.61 335.122 354.076C334.572 355.319 333.959 356.878 333.55 358.753Z" fill="#C5CBD5"/>
<path d="M288.321 351.849L288.367 351.855C288.367 351.883 288.364 351.912 288.361 351.941C288.347 351.909 288.332 351.881 288.321 351.849ZM392.88 167.475C391.626 166.66 390.378 166.189 389.361 165.833C387.316 165.155 386.134 164.877 386.137 164.863C386.139 164.88 387.302 165.032 389.401 165.543C390.443 165.822 391.732 166.198 393.118 166.967C393.613 167.243 394.112 167.619 394.596 168.044C394.753 168.492 394.965 169.083 395.211 169.818C394.573 168.819 393.74 168.032 392.88 167.475ZM484.614 362.69C485.138 361.544 485.43 360.494 485.625 359.624C486 357.881 485.988 356.89 486.003 356.893C485.991 356.896 486.123 357.904 485.9 359.716C485.782 360.617 485.57 361.728 485.109 362.951C484.932 363.425 484.688 363.924 484.405 364.43C485.773 363.764 487.102 363.227 488.362 362.799C488.362 362.799 488.577 362.661 488.712 362.641C490.278 361.745 491.008 360.244 491.398 359.236C491.842 358.033 492.013 357.341 492.022 357.35C492.013 357.341 491.959 358.07 491.658 359.351C491.501 359.994 491.254 360.781 490.745 361.602C490.613 361.806 490.47 362.007 490.304 362.213C490.708 362.101 491.094 362.009 491.475 361.923C494.361 361.283 496.65 361.208 498.173 361.246C499.708 361.272 500.49 361.395 500.49 361.386C500.493 361.395 499.674 361.346 498.124 361.444C496.587 361.547 494.304 361.814 491.524 362.658C491.426 362.687 491.335 362.719 491.24 362.75C491.527 362.802 491.807 362.865 492.076 362.922C493.13 363.189 493.989 363.554 494.634 363.942C495.965 364.725 496.283 365.575 496.292 365.547C496.289 365.567 495.831 364.78 494.473 364.18C493.803 363.884 492.947 363.626 491.925 363.465C491.197 363.365 490.352 363.287 489.499 363.353C488.875 363.594 488.213 363.89 487.552 364.194C486.65 364.252 485.101 364.444 483.065 365.061C483.743 364.312 484.241 363.474 484.614 362.69ZM486.782 475.504C486.767 475.555 482.761 474.039 474.734 472.165C466.731 470.387 454.5 468.137 438.404 469.506C433.312 469.957 427.825 470.884 422.115 472.308C423.493 470.511 424.678 468.708 425.772 467.048C428.71 462.443 431.23 458.521 433.661 455.564C438.501 449.618 442.264 447.319 442.186 447.256C442.246 447.313 439.875 448.507 436.31 451.714C436.445 451.571 436.585 451.419 436.72 451.278C437.138 450.85 437.553 450.445 437.965 450.063C438.466 449.136 438.741 448.157 438.905 447.27C439.122 446.03 439.137 444.936 439.099 444.046C439.016 442.266 438.761 441.313 438.776 441.31C438.764 441.316 439.145 442.257 439.389 444.066C439.509 444.967 439.583 446.093 439.449 447.393C439.397 447.899 439.285 448.447 439.145 449.007C440.296 448.011 441.448 447.152 442.559 446.417C442.559 446.417 442.73 446.231 442.853 446.176C444.142 444.91 444.466 443.271 444.586 442.197C444.709 440.919 444.701 440.204 444.712 440.21C444.701 440.204 444.832 440.925 444.872 442.24C444.878 442.903 444.841 443.724 444.555 444.652C444.483 444.881 444.394 445.111 444.282 445.355C444.646 445.143 444.998 444.953 445.342 444.775C447.974 443.42 450.167 442.763 451.648 442.407C453.14 442.042 453.93 441.961 453.927 441.95C453.93 441.959 453.125 442.122 451.654 442.613C450.19 443.104 448.054 443.945 445.577 445.473C445.491 445.524 445.411 445.582 445.328 445.636C445.62 445.611 445.903 445.599 446.178 445.588C447.263 445.576 448.191 445.708 448.913 445.921C450.399 446.337 450.92 447.081 450.92 447.046C450.923 447.069 450.282 446.423 448.816 446.19C448.094 446.076 447.198 446.047 446.173 446.15C445.445 446.239 444.609 446.38 443.798 446.664C442.415 447.66 440.958 448.878 439.517 450.328C440.348 450.19 441.158 450.17 441.88 450.247C443.452 450.42 444.726 450.853 445.734 451.229C447.745 452.022 448.787 452.57 448.798 452.558C448.793 452.57 447.662 452.113 445.6 451.488C444.566 451.192 443.277 450.859 441.783 450.798C440.755 450.758 439.612 450.922 438.509 451.376C438.223 451.688 437.934 452.01 437.645 452.346C437.166 452.9 436.697 453.486 436.227 454.086C436.705 458.082 441.465 461.783 446.823 458.711C450.786 456.437 451.358 445.539 457.945 440.081C448.584 440.523 441.588 437.216 435.534 440.693C429.727 444.023 431.047 450.73 435.646 452.326C434.841 453.072 434.014 453.885 433.111 454.838C430.463 457.634 427.645 461.461 424.469 465.894C422.722 468.269 420.798 470.873 418.464 473.25C416.348 473.858 414.206 474.527 412.038 475.305C402.654 478.665 392.849 483.674 383.287 490.476C378.763 493.689 374.298 497.32 369.914 501.277C380.922 477.909 394.344 456.971 407.783 437.85C416.162 425.961 424.521 414.707 432.507 403.898C434.824 401.942 437.189 400.177 439.569 398.552L439.695 398.971C446.084 396.651 451.8 394.949 457.086 394.274C462.329 393.562 466.954 393.815 470.611 394.647C471.819 394.917 472.876 395.25 473.867 395.6C470.324 396.996 467.83 401.833 471.344 406.467C474.104 410.108 484.957 409.263 491.209 415.103C489.559 405.856 491.922 398.471 487.698 392.902C483.632 387.539 477.12 389.769 476.186 394.596C476.598 394.88 476.994 395.167 477.383 395.457C477.859 395.816 478.314 396.177 478.746 396.539C479.726 396.915 480.734 397.062 481.627 397.108C482.884 397.162 483.967 397.033 484.843 396.887C486.593 396.576 487.503 396.192 487.506 396.206C487.5 396.195 486.618 396.7 484.86 397.177C483.987 397.409 482.881 397.633 481.575 397.665C481.071 397.679 480.519 397.645 479.943 397.573C481.077 398.589 482.077 399.623 482.944 400.63C482.944 400.63 483.156 400.777 483.222 400.895C484.642 402.006 486.306 402.118 487.383 402.097C488.663 402.054 489.37 401.954 489.364 401.965C489.37 401.954 488.674 402.178 487.377 402.387C486.724 402.479 485.905 402.551 484.955 402.387C484.717 402.341 484.476 402.284 484.222 402.207C484.479 402.54 484.711 402.867 484.934 403.186C486.618 405.623 487.552 407.722 488.093 409.146C488.652 410.581 488.832 411.354 488.84 411.351C488.832 411.356 488.566 410.578 487.89 409.174C487.214 407.788 486.106 405.772 484.273 403.507C484.21 403.43 484.144 403.358 484.081 403.283C484.141 403.567 484.19 403.849 484.239 404.124C484.39 405.201 484.379 406.137 484.264 406.883C484.044 408.414 483.38 409.028 483.411 409.025C483.391 409.031 483.944 408.31 483.984 406.823C484.007 406.091 483.915 405.195 483.677 404.188C483.497 403.476 483.248 402.663 482.864 401.896C481.699 400.65 480.304 399.361 478.683 398.115C478.929 398.925 479.055 399.726 479.073 400.452C479.107 402.04 478.841 403.361 478.603 404.414C478.076 406.516 477.672 407.618 477.684 407.63C477.672 407.624 477.976 406.444 478.328 404.311C478.486 403.246 478.646 401.922 478.511 400.427C478.417 399.399 478.11 398.285 477.521 397.251C477.38 397.154 477.234 397.056 477.094 396.958C477.678 397.257 478.208 397.547 478.66 397.817C480.381 398.842 481.192 399.542 481.203 399.525C481.192 399.539 480.47 398.796 478.855 397.642C477.246 396.496 474.688 394.949 471.011 393.835C467.355 392.712 462.595 392.109 457.114 392.531C453.712 392.758 450.001 393.467 446.138 394.443C446.754 394.093 447.372 393.717 447.982 393.384C458.248 387.831 468.042 384.868 476.166 383.399C484.319 381.911 490.834 381.931 495.206 382.198C499.588 382.488 501.87 382.959 501.873 382.922C501.867 382.959 499.679 382.397 495.378 381.914C491.088 381.458 484.637 381.151 476.401 382.308C472.69 382.824 466.1 384.245 459.674 385.85C463.119 383.014 465.765 379.85 468.265 377.203C471.756 373.35 474.949 370.238 477.984 368.222C482.142 365.458 485.504 364.634 487.223 364.335C486.312 364.766 485.381 365.245 484.431 365.802C485.27 365.882 486.054 366.069 486.736 366.33C488.211 366.899 489.33 367.642 490.212 368.263C491.956 369.546 492.821 370.341 492.832 370.33C492.827 370.341 491.85 369.612 490.015 368.478C489.09 367.93 487.93 367.278 486.501 366.839C485.516 366.537 484.367 366.402 483.19 366.56C482.83 366.79 482.469 367.025 482.105 367.278C481.501 367.688 480.9 368.136 480.293 368.596C479.74 372.583 483.402 377.378 489.362 375.779C493.772 374.59 497.096 364.2 504.851 360.606C495.69 358.642 489.765 353.655 483.024 355.469C476.848 357.129 476.235 363.411 479.728 366.336C479.067 366.64 478.388 366.971 477.669 367.37C474.425 369.19 470.908 372.164 467.171 375.851C463.389 379.442 459.337 384.01 453.692 386.893L453.933 387.355C448.46 388.853 443.884 390.326 442.507 391.234C442.561 391.162 442.441 391.225 442.258 391.346C445.331 386.864 446.688 382.569 451.439 377.791C465.47 363.689 477.183 348.768 486.996 333.914C493.127 330.024 499.107 326.69 504.831 323.733C509.015 322.088 513.577 321.99 517.339 322.275C521.48 322.631 524.988 323.679 527.591 325.042C529.123 325.835 530.283 326.753 531.182 327.641C531.053 328.086 530.959 328.545 530.936 329.027C531.383 329.251 531.818 329.478 532.242 329.708C532.577 329.889 532.883 330.075 533.195 330.259C533.653 331.092 533.799 331.591 533.822 331.577C533.799 331.588 533.725 331.152 533.419 330.388C533.525 330.451 533.645 330.514 533.748 330.578C534.773 330.81 535.787 330.807 536.683 330.727C537.932 330.598 538.985 330.313 539.833 330.038C541.52 329.478 542.362 328.967 542.367 328.981C542.359 328.97 541.56 329.599 539.89 330.322C539.057 330.681 537.997 331.063 536.712 331.284C536.213 331.373 535.661 331.416 535.082 331.43C536.351 332.272 537.485 333.15 538.493 334.02C538.493 334.02 538.722 334.135 538.805 334.241C540.371 335.137 542.032 335.005 543.095 334.83C544.358 334.6 545.039 334.399 545.036 334.41C545.039 334.399 544.383 334.72 543.132 335.114C542.496 335.303 541.697 335.49 540.732 335.467C540.492 335.458 540.245 335.435 539.982 335.395C540.286 335.688 540.563 335.978 540.827 336.262C542.843 338.427 544.071 340.368 544.813 341.7C545.569 343.041 545.861 343.779 545.87 343.773C545.864 343.779 545.489 343.049 544.615 341.76C543.748 340.485 542.359 338.651 540.22 336.676C540.148 336.607 540.074 336.544 539.996 336.478C540.099 336.753 540.188 337.026 540.277 337.287C540.581 338.332 540.704 339.26 540.698 340.017C540.701 341.562 540.131 342.268 540.162 342.26C540.142 342.268 540.586 341.473 540.412 339.997C540.326 339.268 540.111 338.395 539.73 337.434C539.449 336.756 539.086 335.987 538.596 335.283C537.262 334.218 535.698 333.144 533.914 332.148C534.272 332.915 534.513 333.687 534.633 334.405C534.896 335.969 534.825 337.316 534.739 338.393C534.524 340.549 534.28 341.7 534.295 341.706C534.28 341.706 534.412 340.491 534.455 338.332C534.458 337.253 534.427 335.921 534.077 334.462C533.837 333.457 533.37 332.401 532.637 331.465C532.256 331.27 531.869 331.077 531.468 330.888C530.807 330.578 530.117 330.285 529.412 329.995C525.707 331.545 523.447 337.141 527.852 341.476C531.113 344.68 541.729 342.271 548.756 347.143C545.789 338.232 547.064 330.583 542.081 325.685C537.954 321.626 532.86 323.391 531.371 327.089C530.569 326.176 529.533 325.223 528.167 324.348C525.607 322.671 522.038 321.281 517.717 320.578C515.925 320.288 513.969 320.159 511.927 320.17C516.841 317.787 521.503 315.668 525.796 313.722L553.063 301.652L562.293 297.351C560.543 298.104 547.774 303.085 525.572 311.557C515.833 315.436 504.167 320.101 491.509 326.88C503.05 308.324 511.635 290.105 517.992 273.927C519.072 272.597 520.18 271.349 521.288 270.255C524.444 267.188 527.614 264.998 530.357 263.502C535.896 260.499 539.598 260.347 539.55 260.281C539.581 260.332 537.998 260.243 535.246 260.898C535.466 260.795 535.692 260.68 535.91 260.582C536.683 259.867 537.259 259.029 537.7 258.245C538.307 257.143 538.67 256.112 538.928 255.259C539.429 253.551 539.489 252.564 539.504 252.566C539.489 252.566 539.55 253.583 539.197 255.371C539.014 256.264 538.728 257.352 538.178 258.541C537.963 259 537.688 259.483 537.365 259.968C538.779 259.399 540.145 258.963 541.431 258.627C541.431 258.627 541.657 258.504 541.792 258.495C543.418 257.711 544.257 256.27 544.716 255.294C545.245 254.125 545.466 253.445 545.474 253.456C545.466 253.445 545.36 254.171 544.97 255.429C544.761 256.055 544.464 256.824 543.894 257.605C543.751 257.797 543.59 257.987 543.41 258.182C543.819 258.099 544.214 258.036 544.601 257.978C547.525 257.55 549.816 257.642 551.328 257.789C552.857 257.927 553.63 258.107 553.63 258.096C553.633 258.105 552.82 257.995 551.267 257.984C549.724 257.973 547.433 258.073 544.595 258.716C544.495 258.736 544.401 258.762 544.306 258.788C544.59 258.857 544.862 258.943 545.128 259.018C546.159 259.359 546.989 259.787 547.605 260.221C548.876 261.099 549.131 261.972 549.143 261.94C549.137 261.96 548.739 261.142 547.427 260.45C546.78 260.103 545.941 259.784 544.936 259.549C544.22 259.397 543.384 259.259 542.528 259.262C540.895 259.755 539.126 260.436 537.293 261.337C538.123 261.478 538.894 261.719 539.552 262.029C540.987 262.704 542.047 263.528 542.883 264.211C544.529 265.615 545.337 266.471 545.348 266.462C545.34 266.474 544.418 265.673 542.674 264.412C541.789 263.795 540.678 263.063 539.283 262.52C538.321 262.15 537.187 261.932 536.004 262.003C535.626 262.204 535.251 262.414 534.868 262.638C534.24 263.008 533.602 263.407 532.963 263.824C532.127 267.76 535.429 272.81 541.494 271.644C545.978 270.777 550.042 260.654 558.037 257.634C549.042 255.01 543.493 249.606 536.637 250.927C530.28 252.15 529.258 258.515 532.683 261.647C531.875 261.92 531.027 262.233 530.105 262.635C527.193 263.91 523.768 265.891 520.26 268.857C520.097 268.997 519.928 269.167 519.768 269.31C531.586 237.896 534.762 215.304 534.776 215.304C534.759 215.301 527.202 247.149 507.637 285.115C507.632 285.015 507.632 284.908 507.623 284.805C507.222 279.91 506.157 275.839 505.177 272.572C504.851 271.518 504.53 270.576 504.221 269.689C510.301 270.823 515.627 263.686 511.031 255.831C506.217 247.611 496.441 246.893 486.169 240.1C490.433 251.042 484.794 264.478 487.936 269.856C492.185 277.122 499.671 275.87 502.511 271.406C502.337 270.372 502.145 269.359 501.933 268.377C501.798 267.78 501.661 267.197 501.509 266.629C500.538 265.354 499.35 264.395 498.17 263.752C496.452 262.822 494.811 262.362 493.474 262.021C490.799 261.392 489.264 261.182 489.264 261.168C489.267 261.185 490.756 261.225 493.474 261.622C494.825 261.848 496.509 262.176 498.376 263.025C499.233 263.41 500.126 263.982 500.985 264.702C500.201 262.003 499.264 259.569 498.285 257.444C497.537 256.569 496.681 255.842 495.914 255.251C494.82 254.435 493.795 253.867 492.913 253.525C491.134 252.825 490.04 253.166 490.055 253.143C490.037 253.181 491.054 252.641 492.958 253.135C493.903 253.367 495.014 253.824 496.231 254.565C496.529 254.768 496.844 254.969 497.159 255.193C497.099 255.073 497.042 254.952 496.973 254.834C495.066 251.349 493.144 248.912 491.787 247.344C490.415 245.768 489.608 245.033 489.616 245.027C489.608 245.039 490.444 245.662 491.91 247.1C493.371 248.513 495.464 250.769 497.638 254.154C497.921 254.599 498.207 255.061 498.491 255.558C498.514 255.193 498.545 254.855 498.594 254.533C498.806 253.232 499.241 252.222 499.631 251.435C500.43 249.882 500.997 249.11 500.979 249.11C500.997 249.11 500.579 249.96 499.98 251.576C499.49 252.937 498.912 255.119 499.631 257.496C499.739 257.642 499.823 257.984 499.823 257.984C500.647 259.612 501.446 261.406 502.165 263.37C502.328 262.601 502.523 261.874 502.749 261.237C503.348 259.583 504.089 258.288 504.748 257.286C506.059 255.285 507.036 254.412 507.025 254.404C507.036 254.41 506.191 255.38 505.077 257.459C504.524 258.501 503.912 259.819 503.439 261.449C503.113 262.618 502.852 263.979 502.884 265.426C503.127 266.155 503.362 266.921 503.585 267.714C503.648 267.938 503.703 268.173 503.766 268.4C502.377 264.622 501.34 262.681 501.369 262.672C501.332 262.678 502.755 266.103 504.278 272.641C505.003 275.905 505.767 279.97 505.89 284.705C505.913 286.014 505.873 287.38 505.739 288.773C495.733 307.635 482.781 327.776 466.341 346.147C466.587 345.26 466.856 344.358 467.054 343.497C468.38 337.761 468.778 332.705 468.964 328.594C469.242 320.354 468.867 315.789 468.913 315.786C468.867 315.78 468.861 320.245 468.091 328.33C467.498 333.908 466.384 341.508 463.019 349.733C456.585 356.632 449.672 363.264 442.186 369.42C424.727 383.78 411.909 399.893 393.737 421.439C394.642 413.803 394.908 407.001 394.985 401.21C395.051 385.911 394.143 377.458 394.215 377.456C394.146 377.447 394.155 385.724 392.926 400.737C392.23 408.026 391.231 417.098 388.909 427.262C372.165 453.624 365.791 463.566 351.037 492.833C348.912 497.013 344.74 506.419 342.784 510.806C343.821 496.41 345.908 478.07 348.403 464.373C354.365 432.332 354.811 422.482 360.836 389.761C361.839 384.309 363.961 373.178 365.633 366.807C368.242 361.237 370.991 355.934 373.791 350.968L375.713 347.663C377.311 346.153 379.046 344.821 380.799 343.661C383.903 341.614 387.067 339.989 390.091 338.608C396.151 335.863 401.657 334.057 406.191 332.717C415.285 330.087 420.552 329.349 420.537 329.312C420.552 329.349 415.4 329.685 406.188 331.798C401.592 332.88 395.976 334.402 389.647 336.914C386.495 338.183 383.158 339.71 379.794 341.731C379.51 341.904 379.227 342.102 378.943 342.28C379.576 341.33 380.226 340.394 380.885 339.475C383.428 335.952 386.048 332.653 388.602 329.524C393.722 323.271 398.605 317.698 403.069 312.746C412.007 302.849 419.312 295.448 424.483 290.665C429.621 285.821 432.851 283.909 432.88 283.97C432.857 283.906 429.612 285.6 424.337 290.125C423.037 291.219 421.597 292.468 420.036 293.866C420.683 293.045 421.336 292.232 421.992 291.46C422.928 290.355 423.871 289.304 424.804 288.293C425.901 285.936 426.465 283.467 426.766 281.254C427.167 278.156 427.101 275.44 426.958 273.238C426.617 268.836 425.921 266.494 425.958 266.491C425.921 266.494 426.915 268.791 427.636 273.255C427.98 275.477 428.263 278.253 428.06 281.503C427.974 282.758 427.771 284.127 427.473 285.531C430.09 282.93 432.722 280.671 435.251 278.718C435.251 278.718 435.654 278.216 435.929 278.081C438.836 274.777 439.463 270.671 439.649 267.992C439.83 264.817 439.752 263.037 439.784 263.046C439.749 263.051 440.122 264.803 440.325 268.073C440.388 269.718 440.376 271.759 439.778 274.093C439.629 274.67 439.446 275.262 439.211 275.859C440.03 275.305 440.852 274.779 441.651 274.297C447.693 270.616 452.77 268.733 456.218 267.656C459.68 266.586 461.533 266.284 461.513 266.267C461.533 266.284 459.66 266.795 456.247 268.188C452.859 269.583 447.928 271.917 442.246 276.005C442.06 276.14 441.866 276.298 441.677 276.439C442.367 276.344 443.028 276.281 443.667 276.221C446.216 276.06 448.397 276.278 450.116 276.717C453.624 277.573 454.918 279.339 454.909 279.273C454.915 279.321 453.36 277.797 449.91 277.398C448.211 277.191 446.098 277.234 443.701 277.619C442.009 277.92 440.059 278.365 438.194 279.163C435.027 281.808 431.725 284.997 428.458 288.767C430.408 288.328 432.298 288.176 433.988 288.293C437.696 288.523 440.709 289.456 443.105 290.263C447.905 291.988 450.371 293.226 450.396 293.188C450.388 293.229 447.702 292.235 442.816 290.923C440.356 290.317 437.321 289.634 433.804 289.68C431.396 289.7 428.733 290.237 426.199 291.486C425.549 292.31 424.893 293.134 424.237 294.007C423.169 295.425 422.118 296.938 421.076 298.494C422.542 308.353 433.996 316.969 446.304 308.703C455.385 302.579 455.797 275.477 470.785 261.145C448.884 263.367 432.215 255.994 418.309 265.342C404.951 274.317 408.662 290.871 419.641 294.222C414.902 298.48 409.04 304.084 402.222 311.055C397.585 315.803 392.5 321.175 387.122 327.264C384.441 330.316 381.678 333.543 378.935 337.046C377.569 338.806 376.2 340.62 374.911 342.627L371.191 348.582C371.117 348.705 371.04 348.843 370.965 348.966C375.719 333.248 380.303 318.117 384.447 303.719C389.971 284.598 394.75 266.669 398.673 249.916C402.161 240 406.085 231.183 410.022 223.428C411.402 222.082 412.871 220.968 414.355 220.101C417.27 218.381 420.128 217.463 422.485 216.842C427.247 215.665 430.03 215.467 430.016 215.421C430.016 215.467 427.338 215.281 422.43 215.944C419.99 216.32 416.958 216.951 413.668 218.51C413.169 218.743 412.662 219.053 412.167 219.337C415.855 212.444 419.495 206.467 422.745 201.548C431.439 188.594 437.693 182.376 437.599 182.321C437.693 182.39 431.012 187.748 421.29 200.015C416.056 206.728 409.836 215.602 403.736 226.65C410.924 190.343 412.745 161.038 411.946 140.812C411.113 118.743 408.353 107.399 408.501 107.394C408.353 107.388 410.171 118.596 409.581 140.057C409.2 154.432 407.247 173.387 402.728 196.208C401.846 189.536 400.332 183.88 398.989 179.488C397.144 173.734 395.538 169.956 394.747 168.173C394.831 168.25 394.919 168.314 394.999 168.394C394.656 166.376 394.163 164.541 393.605 162.928C393.107 162.233 392.502 161.633 391.961 161.139C391.179 160.461 390.432 159.968 389.773 159.646C388.445 158.991 387.548 159.146 387.563 159.129C387.545 159.161 388.399 158.851 389.854 159.37C390.567 159.612 391.397 160.036 392.276 160.674C392.494 160.846 392.72 161.018 392.946 161.208C392.909 161.113 392.875 161.018 392.835 160.929C391.686 158.251 390.421 156.33 389.51 155.084C388.585 153.832 388.024 153.235 388.032 153.229C388.024 153.238 388.625 153.758 389.63 154.917C390.638 156.063 392.059 157.869 393.43 160.493C393.608 160.837 393.785 161.196 393.963 161.581C394.012 161.317 394.072 161.076 394.143 160.846C394.438 159.927 394.882 159.233 395.269 158.693C396.059 157.639 396.574 157.128 396.56 157.125C396.574 157.128 396.162 157.705 395.529 158.822C395.008 159.769 394.335 161.297 394.656 163.074C394.73 163.189 394.762 163.444 394.762 163.444C395.246 164.688 395.698 166.051 396.068 167.533C396.268 166.987 396.497 166.479 396.743 166.034C397.376 164.891 398.089 164.016 398.702 163.35C399.939 162.012 400.795 161.463 400.79 161.452C400.801 161.463 400.039 162.092 398.948 163.499C398.413 164.208 397.794 165.11 397.259 166.249C396.884 167.068 396.549 168.027 396.423 169.074C396.54 169.626 396.649 170.197 396.746 170.788C396.821 171.268 396.892 171.75 396.95 172.247C401.649 173.662 406.643 168.919 403.797 162.821C400.836 156.479 393.215 155.147 385.819 149.382C388.07 157.648 382.282 166.887 384.215 171.035C386.832 176.64 392.846 176.358 395.532 173.367C395.498 172.603 395.452 171.854 395.375 171.127C395.332 170.697 395.283 170.277 395.229 169.864C395.942 171.971 396.958 175.193 398.078 179.531C399.518 185.448 401.216 193.607 401.248 203.4C399.286 212.565 396.924 222.294 394.095 232.573C392.248 239.371 390.154 246.491 387.949 253.761C387.849 253.031 387.783 252.271 387.663 251.564C386.483 244.559 384.358 238.771 382.262 234.269C377.949 225.286 374.35 221.034 374.447 220.982C374.347 221.02 377.503 225.441 381.214 234.462C383.007 238.981 384.776 244.717 385.621 251.596C385.948 254.14 386.088 256.879 386.134 259.709C382.901 270.117 379.333 280.998 375.464 292.33C375.106 290.673 374.722 289.034 374.313 287.423C370.653 273.453 365.398 261.171 360.321 249.891C353.944 236.038 347.818 223.618 342.604 212.346C342.535 211.764 342.489 211.181 342.466 210.609C342.378 208.442 342.518 206.36 342.773 204.425C343.277 200.552 344.216 197.262 345.221 194.675C347.188 189.41 349.863 187.397 349.834 187.429C349.889 187.394 346.997 189.031 344.465 194.187C343.197 196.714 341.939 199.987 341.097 203.983C340.848 205.175 340.662 206.446 340.516 207.767C338.122 202.464 335.932 197.391 334.087 192.585C327.733 176.565 324.861 163.358 324.162 154.257C323.435 145.145 324.248 140.287 324.168 140.295C324.248 140.295 323.019 144.9 322.968 153.99C322.893 163.025 324.652 176.485 329.838 193.013C324.812 190.693 320.728 188.64 317.876 186.809C314.26 184.543 312.619 182.743 312.607 182.763C312.616 182.746 313.169 183.585 314.457 184.908C313.504 184.635 312.547 184.549 311.7 184.561C310.44 184.589 309.368 184.787 308.504 184.994C306.78 185.419 305.898 185.861 305.892 185.847C305.901 185.858 306.745 185.296 308.469 184.707C309.326 184.417 310.411 184.119 311.714 184.001C312.215 183.955 312.773 183.955 313.352 183.986C312.152 183.048 311.092 182.08 310.156 181.136C310.156 181.136 309.936 180.998 309.858 180.889C308.369 179.872 306.702 179.869 305.629 179.958C304.354 180.088 303.658 180.234 303.661 180.223C303.658 180.234 304.334 179.964 305.62 179.671C306.264 179.536 307.075 179.41 308.037 179.513C308.275 179.539 308.518 179.582 308.779 179.643C308.498 179.327 308.246 179.017 308.005 178.712C306.167 176.393 305.096 174.36 304.46 172.976C303.813 171.578 303.581 170.82 303.573 170.823C303.578 170.817 303.893 171.575 304.664 172.933C305.428 174.271 306.668 176.209 308.641 178.348C308.71 178.422 308.779 178.491 308.85 178.563C308.77 178.282 308.704 178.003 308.635 177.733C308.412 176.668 308.366 175.735 308.429 174.983C308.549 173.438 309.177 172.781 309.142 172.787C309.165 172.781 308.655 173.536 308.718 175.023C308.741 175.755 308.887 176.645 309.191 177.633C309.42 178.331 309.721 179.123 310.153 179.864C311.399 181.032 312.871 182.227 314.569 183.363C314.274 182.571 314.096 181.782 314.033 181.055C313.893 179.473 314.073 178.141 314.242 177.073C314.629 174.94 314.958 173.812 314.947 173.806C314.961 173.809 314.732 175.009 314.523 177.156C314.437 178.23 314.357 179.562 314.592 181.044C314.752 182.063 315.133 183.154 315.789 184.147C316.152 184.371 316.522 184.592 316.911 184.813C317.544 185.172 318.208 185.522 318.887 185.867C322.702 184.618 325.399 179.221 321.353 174.549C318.355 171.096 307.584 172.652 300.964 167.237C303.217 176.352 301.336 183.877 305.918 189.157C310.125 194.003 316.081 191.813 317.158 187.371C317.198 187.406 317.232 187.435 317.275 187.472C320.265 189.955 324.938 192.901 330.834 196.137C333.474 204.382 336.879 213.317 340.742 222.975C340.41 222.722 340.075 222.47 339.746 222.234C336.186 219.742 332.824 218.12 329.995 217.02C324.311 214.764 320.8 215.051 320.84 215.062C320.817 215.051 324.191 215.148 329.511 217.778C332.157 219.067 335.313 220.896 338.572 223.515C339.906 224.603 341.241 225.875 342.475 227.293C345.633 235.125 349.033 243.405 352.509 252.173C356.922 263.577 361.458 275.879 364.304 289.132C366.466 299.272 366.106 305.425 364.153 315.907L346.272 375.147C343.953 381.863 341.61 388.71 339.276 395.698C338.849 384.926 337.985 378.409 335.748 371.467C334.059 366.227 331.31 360.91 331.519 361.619C332.727 364.168 332.793 364.817 333.895 368.814C336.209 377.166 337.635 388.793 336.994 402.634C331.438 419.585 326.038 437.365 321.313 456.164C315.425 421.876 304.944 391.124 293.521 363.856C292.903 362.386 292.27 360.967 291.646 359.517C291.623 354.559 291.717 349.828 291.92 345.332C292.98 341.367 294.592 337.807 296.399 334.761C299.2 330.058 302.427 326.489 305.302 323.868C309.44 320.093 312.831 318.376 314.446 317.692C314.053 317.931 313.67 318.138 313.274 318.402C314.116 318.433 314.915 318.574 315.605 318.795C317.112 319.277 318.272 319.961 319.188 320.526C321.003 321.706 321.911 322.45 321.923 322.441C321.917 322.453 320.897 321.781 319.005 320.756C318.048 320.256 316.851 319.674 315.402 319.318C314.4 319.071 313.249 319.005 312.08 319.226C311.734 319.475 311.387 319.734 311.035 320.007C310.46 320.452 309.881 320.934 309.303 321.428C308.979 325.439 312.905 330.018 318.764 328.077C323.102 326.639 325.829 316.076 333.369 312.045C324.11 310.607 317.911 305.967 311.284 308.164C304.904 310.277 304.893 317.173 309.142 319.628C309.546 319.329 309.944 319.048 310.345 318.775C310.838 318.439 311.327 318.123 311.805 317.833C312.481 317.024 312.945 316.119 313.28 315.284C313.738 314.109 313.97 313.041 314.114 312.163C314.391 310.403 314.325 309.415 314.337 309.415C314.328 309.421 314.514 310.42 314.394 312.24C314.331 313.148 314.185 314.267 313.79 315.513C313.638 315.999 313.426 316.513 313.171 317.035C314.497 316.286 315.797 315.677 317.032 315.18C317.032 315.18 317.238 315.028 317.369 315.002C318.881 314.015 319.526 312.476 319.858 311.448C320.233 310.219 320.365 309.519 320.376 309.527C320.365 309.519 320.351 310.251 320.127 311.546C320.004 312.197 319.804 312.998 319.342 313.845C319.222 314.055 319.091 314.265 318.933 314.48C319.334 314.345 319.712 314.233 320.087 314.124C322.931 313.32 325.216 313.116 326.736 313.064C328.271 313.004 329.059 313.085 329.059 313.073C329.062 313.082 328.243 313.082 326.699 313.268C325.17 313.458 322.911 313.854 320.179 314.856C320.084 314.89 319.993 314.928 319.901 314.965C320.19 314.999 320.474 315.045 320.746 315.086C321.811 315.292 322.69 315.608 323.357 315.961C324.729 316.668 325.093 317.497 325.098 317.466C325.098 317.489 324.6 316.728 323.208 316.208C322.527 315.95 321.651 315.74 320.625 315.64C319.895 315.579 319.048 315.551 318.197 315.666C317.112 316.157 315.961 316.785 314.792 317.48C313.346 317.916 309.658 319.286 304.875 323.061C301.8 325.513 298.252 328.918 295.059 333.652C294.303 334.775 293.57 335.984 292.871 337.264C292.943 335.697 292.934 334.169 292.837 332.694C293.086 330.247 293.367 327.893 293.687 325.651C296.983 301.942 303.681 289.907 303.467 289.904C303.713 289.915 296.328 301.133 291.737 324.732C291.72 324.821 291.706 324.922 291.686 325.011C291.585 324.571 291.502 324.101 291.394 323.676C290.122 318.835 288.424 314.873 286.886 311.732C283.745 305.465 281.302 302.41 281.345 302.39C281.299 302.407 283.375 305.597 286.007 311.945C287.29 315.123 288.702 319.105 289.667 323.88C290.119 326.153 290.463 328.634 290.595 331.244C289.735 336.719 289.057 342.762 288.573 349.245C288.43 350.017 288.312 350.807 288.209 351.611C276.657 325.662 264.49 302.7 253.485 281.894C252.231 279.54 251.005 277.231 249.779 274.929C251.692 264.125 254.65 254.117 257.311 244.984C258.138 242.239 258.937 239.584 259.713 236.98C261.838 231.493 264.642 227.316 267.445 224.858C271.302 221.433 274.381 220.882 274.306 220.804C274.375 220.899 271.337 220.994 266.981 224.086C265.366 225.226 263.688 226.859 262.079 228.941C264.278 221.321 266.131 214.368 267.373 208.152C271.692 187.414 269.762 175.523 269.931 175.597C269.765 175.528 270.773 187.145 265.466 207.179C262.88 217.195 258.611 229.142 253.642 243.19C253.496 243.617 253.345 244.068 253.198 244.499C253.121 243.945 253.061 243.362 252.978 242.825C252.236 238.117 251.243 234.135 250.303 230.913C248.468 224.448 246.503 221.198 246.423 221.267C246.506 221.218 248.081 224.508 249.404 230.979C250.086 234.198 250.793 238.188 251.24 242.862C251.435 244.881 251.552 247.051 251.569 249.305C249.63 255.07 247.657 261.205 245.971 267.757C236.289 249.489 227.664 232.929 220.688 217.885C211.902 199.077 205.685 182.62 201.788 168.945C197.85 155.279 196.141 144.476 195.342 137.175C194.551 129.862 194.526 126.061 194.494 126.064C194.526 126.067 194.116 129.724 194.073 136.954C194.056 144.171 194.517 155.006 196.954 169.046C199.351 183.079 203.83 200.239 210.731 219.94C212.191 224.149 213.781 228.496 215.45 232.934L210.293 228.456C206.739 225.349 203.414 222.392 200.333 219.587C194.173 213.974 189.002 208.964 184.973 204.669C183.085 202.66 181.476 200.822 180.102 199.143C185.837 200.145 192.954 195.275 191.235 186.49C189.941 179.89 175.079 173.958 170.594 162.187C166.8 175.468 158.914 183.671 160.892 193.768C162.791 203.486 172.822 204.773 177.169 199.005C176.817 198.365 176.473 197.724 176.153 197.09C175.752 196.309 175.388 195.545 175.044 194.781C173.999 193.647 172.765 192.801 171.611 192.16C169.996 191.27 168.478 190.742 167.23 190.363C164.721 189.64 163.269 189.553 163.275 189.533C163.269 189.553 164.761 189.456 167.39 189.97C168.699 190.234 170.297 190.653 172.04 191.457C172.713 191.761 173.429 192.172 174.134 192.64C173.298 190.558 172.65 188.551 172.152 186.662C172.152 186.662 171.975 186.318 171.96 186.128C170.798 183.734 168.673 182.508 167.238 181.836C165.529 181.067 164.532 180.739 164.541 180.725C164.535 180.742 165.589 180.894 167.442 181.463C168.364 181.761 169.486 182.201 170.637 183.039C170.924 183.246 171.207 183.484 171.485 183.748C171.365 183.142 171.262 182.56 171.179 181.988C170.531 177.685 170.66 174.317 170.852 172.075C171.05 169.83 171.31 168.684 171.293 168.684C171.31 168.684 171.161 169.884 171.147 172.172C171.147 174.452 171.305 177.82 172.261 181.994C172.29 182.14 172.333 182.284 172.367 182.425C172.47 182.005 172.59 181.601 172.705 181.213C173.197 179.686 173.819 178.46 174.452 177.547C175.729 175.675 177 175.29 176.957 175.279C176.995 175.284 175.795 175.876 174.784 177.814C174.28 178.761 173.816 180.004 173.487 181.489C173.26 182.539 173.06 183.777 173.071 185.032C173.805 187.443 174.815 190.044 176.15 192.746C176.347 191.517 176.697 190.377 177.149 189.407C178.123 187.288 179.331 185.721 180.334 184.483C182.372 182.043 183.627 180.854 183.615 180.837C183.63 180.854 182.467 182.215 180.617 184.799C179.729 186.105 178.653 187.745 177.874 189.809C177.335 191.221 177.015 192.892 177.126 194.638C177.433 195.189 177.739 195.743 178.068 196.309C178.303 196.711 178.578 197.121 178.833 197.526C177.879 196.289 177.037 195.135 176.422 194.15C174.744 191.52 174.374 189.872 174.36 189.884C174.374 189.869 174.621 191.5 176.115 194.207C177.584 196.918 180.213 200.656 184.008 205.149C187.796 209.648 192.736 214.916 198.712 220.833C199.417 221.531 200.184 222.271 200.917 222.986C200.499 222.851 200.084 222.725 199.68 222.607C196.006 221.588 192.773 221.229 190.144 220.977C187.994 220.799 186.258 220.684 184.93 220.606C187.799 216.794 185.376 210.592 178.79 210.845C171.814 211.112 167.628 217.632 159.455 222.226C167.925 223.36 174.162 232.297 178.727 232.125C184.892 231.886 186.977 226.222 185.273 222.579C184.557 222.315 183.85 222.068 183.154 221.852C182.728 221.72 182.315 221.603 181.9 221.491C180.732 221.689 179.675 222.157 178.824 222.737C177.59 223.581 176.671 224.548 175.949 225.346C174.532 226.974 173.816 227.962 173.802 227.953C173.819 227.956 174.412 226.94 175.697 225.2C176.359 224.347 177.206 223.302 178.449 222.32C179.022 221.872 179.718 221.462 180.497 221.135C178.507 220.669 176.631 220.411 174.93 220.299C174.097 220.489 173.309 220.813 172.648 221.123C171.72 221.58 170.975 222.082 170.425 222.564C169.303 223.538 169.1 224.425 169.091 224.405C169.108 224.433 169.157 223.526 170.199 222.383C170.7 221.821 171.413 221.218 172.341 220.649C172.582 220.514 172.828 220.374 173.089 220.239C172.991 220.236 172.891 220.233 172.794 220.233C169.884 220.253 167.628 220.675 166.13 221.034C164.618 221.399 163.851 221.686 163.851 221.68C163.856 221.689 164.564 221.338 166.027 220.856C167.464 220.371 169.678 219.762 172.622 219.518C173.008 219.487 173.409 219.461 173.827 219.446C173.607 219.3 173.409 219.151 173.223 218.996C172.493 218.361 172.029 217.684 171.685 217.115C171.024 215.978 170.755 215.298 170.749 215.309C170.755 215.298 171.124 215.909 171.903 216.929C172.573 217.775 173.713 218.993 175.474 219.386C175.606 219.363 175.855 219.432 175.855 219.432C177.184 219.469 178.613 219.584 180.116 219.817C179.695 219.418 179.317 219.01 179.008 218.611C178.2 217.58 177.676 216.581 177.298 215.754C176.548 214.092 176.379 213.09 176.365 213.09C176.379 213.084 176.659 214.035 177.533 215.585C177.974 216.36 178.561 217.276 179.4 218.215C180.007 218.881 180.76 219.564 181.674 220.087C182.226 220.19 182.226 220.19 183.372 220.457C183.469 220.48 183.569 220.512 183.673 220.537C182.564 220.48 179.569 220.336 179.569 220.328L189.895 221.841C192.444 222.337 195.58 222.975 199.019 224.212C202.409 225.455 207.246 227.947 209.835 231.496L213.838 235.223L216.656 237.832L217.687 238.803C223.056 252.701 229.029 266.818 235.828 282.89C236.243 283.875 220.436 264.228 206.118 260.525C218.466 264.768 239.31 291.388 239.857 292.68C246.415 308.255 252.514 322.745 259.301 340.485C253.96 336.902 248.433 333.845 242.792 331.35C241.08 330.598 239.359 329.912 237.626 329.26C236.953 325.269 235.487 321.818 233.981 318.921C231.996 315.192 229.843 312.269 227.979 309.987C224.216 305.439 221.653 303.375 221.687 303.346C221.65 303.369 223.892 305.654 227.182 310.409C228.806 312.789 230.688 315.806 232.36 319.536C233.497 322.117 234.551 325.111 235.075 328.367C233.711 327.899 232.354 327.417 230.98 327.02C229.035 326.461 226.865 325.924 225.083 325.53L219.671 324.29C205.376 320.942 192.278 317.222 180.64 312.743C173.905 310.168 167.725 307.317 161.986 304.302C157.539 298.549 154.572 293.128 152.803 288.913C150.409 283.192 150.151 279.634 150.097 279.66C150.157 279.634 150.002 283.108 151.921 289.08C153.092 292.697 155.042 297.231 158.066 302.195C155.32 300.65 152.662 299.08 150.168 297.466C132.857 286.229 121.581 274.188 114.224 265.974C106.904 257.642 103.434 252.885 103.396 252.92C103.442 252.894 106.249 257.852 112.597 266.787C118.614 275.032 127.795 287.073 142.677 299.444C138.98 298.864 135.744 298.715 133.098 298.75C127.631 298.824 124.69 299.697 124.696 299.665C124.69 299.697 127.62 299.215 132.941 299.637C135.592 299.849 138.84 300.271 142.517 301.155C143.602 301.437 144.764 301.77 145.944 302.14C154.26 308.663 164.294 315.02 175.932 320.627C176.774 321.034 177.685 321.41 178.538 321.81C172.768 322.553 167.313 323.524 162.23 324.571C150.443 327.038 140.489 329.906 132.379 332.335C116.2 337.287 107.305 340.368 107.294 340.333L132.514 334.456C140.675 332.63 150.709 330.431 162.487 328.64C166.276 328.077 170.271 327.563 174.423 327.147C172.353 328.134 170.377 329.162 168.581 330.242C163.295 333.451 159.148 336.842 156.056 339.908C155.119 340.83 154.317 341.706 153.573 342.555C152.144 338.464 145.876 337.89 142.6 343.598C139.163 349.569 142.121 355.768 141.471 364.53C146.795 357.872 157.112 356.299 159.36 352.392C162.399 347.109 159.014 343.032 155.251 342.963C154.67 343.457 154.1 343.954 153.567 344.45C153.241 344.752 152.932 345.05 152.628 345.352C152.173 346.417 151.989 347.496 152.004 348.453C152.024 349.839 152.304 351.008 152.559 351.944C153.103 353.804 153.504 354.812 153.493 354.818C153.504 354.806 153.015 353.89 152.31 352.096C151.981 351.189 151.603 350.043 151.477 348.596C151.422 347.93 151.462 347.175 151.611 346.388C150.205 347.87 149.02 349.34 148.04 350.724C147.757 351.504 147.602 352.297 147.499 352.986C147.376 353.951 147.382 354.78 147.473 355.446C147.657 356.787 148.247 357.324 148.229 357.324C148.258 357.318 147.571 356.905 147.213 355.561C147.032 354.904 146.929 354.06 146.964 353.046C146.987 352.788 147.004 352.521 147.035 352.248C146.978 352.328 146.926 352.409 146.872 352.495C145.369 354.947 144.521 357.02 144.02 358.429C143.519 359.848 143.347 360.611 143.341 360.608C143.347 360.608 143.444 359.868 143.825 358.444C144.195 357.031 144.873 354.921 146.219 352.346C146.397 352.007 146.583 351.659 146.795 351.303C146.563 351.427 146.339 351.533 146.122 351.622C145.24 351.978 144.461 352.087 143.834 352.148C142.591 352.237 141.915 352.182 141.921 352.194C141.915 352.182 142.588 352.122 143.799 351.886C144.816 351.671 146.374 351.212 147.605 349.894C147.657 349.773 147.843 349.592 147.843 349.592C148.565 348.49 149.403 347.336 150.374 346.167C149.839 346.357 149.318 346.509 148.839 346.604C147.608 346.856 146.546 346.891 145.695 346.868C143.991 346.813 143.109 346.546 143.104 346.555C143.106 346.543 144.003 346.695 145.681 346.598C146.526 346.543 147.556 346.428 148.733 346.11C149.575 345.872 150.512 345.521 151.399 344.967C151.772 344.545 152.167 344.12 152.579 343.692C152.648 343.623 152.717 343.555 152.783 343.486C149.212 347.792 148.075 350.787 148.04 350.724C148.089 350.798 150.094 346.354 156.511 340.704C159.695 337.887 163.913 334.769 169.237 331.861C171.894 330.417 174.832 329.022 178.048 327.85C179.449 327.351 180.923 326.897 182.433 326.512C184.503 326.392 186.596 326.294 188.735 326.245C197.077 329.639 205.954 332.785 215.376 335.714C218.898 336.848 222.878 337.922 226.06 339.027C229.408 340.201 232.761 341.625 236.063 343.313C242.672 346.684 249.115 350.985 255.117 356.121C260.988 361.16 266.42 367.051 271.096 373.657C271.858 376.006 272.577 378.426 273.318 380.809C272.837 380.548 272.356 380.284 271.881 380.042C266.832 377.484 262.133 376.109 258.253 375.328C250.404 373.723 245.968 375.15 246.028 375.121C245.982 375.15 250.349 374.131 257.869 376.152C261.592 377.143 266.096 378.753 270.879 381.466C271.967 382.087 273.069 382.784 274.166 383.536C278.965 399.267 283.224 415.755 286.319 433.041C282.771 430.081 279.26 427.73 276.062 425.855C270.117 422.398 265.14 420.472 261.752 419.283C258.353 418.121 256.512 417.678 256.517 417.658C256.409 417.808 263.674 419.892 274.661 427.434C278.602 430.216 283.015 433.814 287.233 438.493C288.948 448.97 290.282 459.681 291.007 470.675C291.617 479.893 291.809 489.012 291.605 498.727C291.497 506.637 291.505 514.592 291.545 522.594C289.383 519.086 287.17 515.675 284.885 512.41C265.332 484.656 242.683 465.647 222.629 452.182C217.323 445.206 212.867 438.453 209.448 432.034C205.081 423.906 202.315 416.364 200.611 410.027C197.289 397.289 197.507 389.715 197.355 389.761C197.512 389.741 196.387 396.981 198.503 410.162C199.629 416.717 201.774 424.704 205.654 433.483C207.32 437.285 209.379 441.238 211.69 445.266C192.916 434.049 176.84 427.609 165.408 424.078C152.702 420.159 145.649 419.929 145.684 419.886C145.655 419.926 152.399 421.029 164.166 426.145C175.886 431.247 192.722 440.219 211.977 455.099C221.607 462.601 231.956 471.645 242.113 482.509C238.671 481.065 235.244 479.902 231.91 479.075C220.161 476.081 209.646 476.253 201.318 477.163C192.951 478.11 186.642 479.827 182.415 481.085C178.197 482.38 176.041 483.241 176.038 483.218C176.041 483.241 178.206 482.609 182.415 481.693C186.628 480.818 192.905 479.635 201.075 479.27C209.21 478.94 219.353 479.417 230.37 482.85C237.652 485.076 245.238 488.814 252.331 494.211C258.132 501.32 263.757 509.103 269.029 517.598C265.134 516.298 261.486 515.764 258.407 515.425C249.642 514.658 244.779 515.256 244.779 515.161C244.765 515.25 249.545 515.115 258.055 516.43C261.712 517.07 266.151 518.098 270.692 520.286C279.386 534.83 286.795 551.45 291.502 569.859C291.643 570.408 291.757 570.973 291.892 571.522C291.932 578.748 291.995 585.952 291.975 593.29C291.903 615.003 291.52 637.257 289.933 659.59C289.134 670.744 288.012 681.915 286.299 692.805C284.604 703.646 279.942 730.57 258.914 739H379.774C351.037 711.03 342.91 649.593 343.592 613.99C343.987 590.39 347.346 567.913 353.033 546.874C357.578 539.372 362.179 532.307 367.025 525.835C368.419 523.963 369.843 522.183 371.271 520.409C376.197 517.966 381.165 516.286 385.887 515.379C394.564 513.677 402.431 514.581 408.241 516.952C414.103 519.301 417.845 522.844 420.03 525.41C422.23 528.017 423.086 529.648 423.115 529.625C423.08 529.642 422.462 527.98 420.575 525.143C418.687 522.361 415.326 518.313 409.401 515.192C403.542 512.069 395.171 510.234 385.641 511.319C383.075 511.604 380.424 512.1 377.726 512.792C381.747 508.342 385.864 504.251 390.08 500.588C390.916 499.853 391.769 499.212 392.611 498.512C392.752 498.5 392.898 498.483 393.041 498.472C398.573 498.124 403.444 498.383 407.428 498.302C408.971 498.288 410.343 498.222 411.611 498.13C411.723 498.245 411.792 498.386 411.909 498.495C412.29 498.322 412.671 498.164 413.049 498.012C414.438 497.866 415.638 497.679 416.585 497.447C418.65 496.962 419.63 496.399 419.635 496.422C419.632 496.399 418.636 496.861 416.608 497.185C416.041 497.28 415.369 497.352 414.635 497.409C414.721 497.378 414.81 497.341 414.893 497.315C415.726 496.669 416.374 495.885 416.881 495.138C417.576 494.093 418.032 493.1 418.361 492.27C419.008 490.611 419.151 489.632 419.166 489.638C419.151 489.638 419.12 490.654 418.613 492.405C418.361 493.278 417.98 494.34 417.324 495.474C417.075 495.914 416.757 496.37 416.399 496.827C417.854 496.382 419.254 496.066 420.56 495.842C420.56 495.842 420.798 495.741 420.932 495.741C422.622 495.104 423.581 493.737 424.123 492.804C424.753 491.687 425.033 491.03 425.042 491.042C425.033 491.03 424.861 491.742 424.363 492.959C424.103 493.571 423.742 494.309 423.103 495.038C422.946 495.219 422.768 495.394 422.571 495.569C422.991 495.523 423.387 495.494 423.773 495.471C426.728 495.293 429.002 495.586 430.497 495.862C432.006 496.132 432.762 496.379 432.765 496.37C432.765 496.376 431.966 496.201 430.417 496.051C428.882 495.911 426.591 495.81 423.707 496.204C423.61 496.215 423.513 496.235 423.409 496.25C423.69 496.347 423.954 496.453 424.214 496.551C425.211 496.982 426.001 497.478 426.58 497.966C427.768 498.948 427.943 499.838 427.957 499.81C427.951 499.833 427.628 498.983 426.376 498.176C425.769 497.774 424.959 497.384 423.976 497.065C423.275 496.85 422.453 496.64 421.597 496.568C419.933 496.921 418.112 497.441 416.205 498.185C417.024 498.397 417.771 498.704 418.398 499.069C419.77 499.864 420.758 500.78 421.531 501.529C423.049 503.071 423.773 503.995 423.79 503.987C423.782 503.998 422.931 503.12 421.299 501.713C420.474 501.021 419.432 500.194 418.089 499.537C417.164 499.08 416.053 498.765 414.864 498.736C414.472 498.902 414.08 499.08 413.676 499.27C413.02 499.583 412.35 499.927 411.683 500.289C410.509 504.136 413.364 509.45 419.501 508.816C424.042 508.342 428.965 498.609 437.189 496.29C428.455 492.899 423.395 487.034 416.451 487.757C410.357 488.389 408.633 494.013 411.116 497.516C410.039 497.51 408.902 497.484 407.637 497.418C404.083 497.266 399.77 496.818 394.745 496.761C409.472 485.121 425.019 478.61 438.561 475.799C453.604 472.644 465.954 473.19 474.176 473.879C482.446 474.636 486.776 475.561 486.782 475.504Z" fill="#C5CBD5"/>
<path d="M378.739 222.007C378.608 223.374 378.596 224.93 378.923 226.503C379.349 227.255 379.77 228.031 380.183 228.84C380.518 229.501 380.844 230.181 381.168 230.867C388.358 230.735 393.034 221.502 386.179 213.971C379.051 206.145 367.846 207.77 354.822 202.86C361.895 213.813 358.25 229.948 362.903 235.065C369.206 241.984 377.425 238.76 379.727 233.161C379.315 232.067 378.894 230.999 378.447 229.977C378.178 229.36 377.897 228.76 377.62 228.165C376.254 227.008 374.71 226.256 373.244 225.843C371.116 225.243 369.16 225.145 367.577 225.099C364.412 225.079 362.637 225.223 362.637 225.197C362.646 225.226 364.332 224.895 367.494 224.66C369.072 224.58 371.039 224.516 373.333 224.993C374.381 225.205 375.515 225.605 376.629 226.182C375.185 223.411 373.636 220.979 372.087 218.892C371.062 218.111 369.934 217.526 368.951 217.072C367.551 216.443 366.265 216.079 365.203 215.923C363.047 215.588 361.881 216.236 361.89 216.211C361.878 216.248 362.912 215.415 365.177 215.481C366.285 215.504 367.646 215.731 369.172 216.248C369.556 216.386 369.948 216.535 370.355 216.704C370.257 216.59 370.16 216.463 370.065 216.354C367.196 212.998 364.53 210.804 362.666 209.421C360.79 208.034 359.719 207.422 359.733 207.417C359.722 207.425 360.81 207.905 362.76 209.113C364.702 210.316 367.528 212.263 370.675 215.441C371.093 215.86 371.514 216.305 371.938 216.768C371.878 216.374 371.852 215.992 371.844 215.622C371.818 214.149 372.096 212.929 372.382 211.97C372.972 210.064 373.45 209.088 373.43 209.076C373.453 209.085 373.149 210.118 372.803 212.03C372.531 213.65 372.325 216.188 373.611 218.622C373.765 218.749 373.943 219.107 373.943 219.107C375.194 220.684 376.474 222.452 377.697 224.425C377.714 223.552 377.789 222.705 377.923 221.944C378.261 219.989 378.831 218.387 379.355 217.124C380.443 214.597 381.377 213.4 381.357 213.388C381.377 213.397 380.618 214.675 379.779 217.23C379.369 218.507 378.943 220.109 378.739 222.007Z" fill="#C5CBD5"/>
<path d="M250.191 434.058C259.532 435.419 264.237 427.478 262.685 421.521C261.677 420.926 260.681 420.358 259.693 419.841C259.094 419.525 258.504 419.233 257.912 418.948C256.099 418.917 254.387 419.33 252.943 419.97C250.844 420.892 249.206 422.089 247.898 423.091C245.309 425.144 243.957 426.424 243.946 426.404C243.966 426.424 245.131 425.058 247.56 422.801C248.785 421.699 250.352 420.358 252.499 419.233C253.476 418.719 254.636 418.288 255.91 418.018C253.035 416.763 250.283 415.853 247.754 415.213C246.451 415.268 245.183 415.532 244.1 415.822C242.583 416.244 241.314 416.795 240.352 417.366C238.402 418.518 237.852 419.795 237.838 419.764C237.855 419.804 238.184 418.466 240.06 417.036C240.976 416.327 242.222 415.615 243.774 415.024C244.172 414.886 244.581 414.739 245.017 414.61C244.862 414.581 244.71 414.547 244.561 414.521C240.189 413.737 236.681 413.746 234.321 413.872C231.953 414.002 230.713 414.214 230.713 414.197C230.713 414.214 231.884 413.887 234.207 413.562C236.518 413.246 240.005 412.939 244.498 413.399C245.097 413.453 245.71 413.528 246.34 413.625C246.051 413.347 245.793 413.063 245.561 412.776C244.63 411.621 244.123 410.47 243.76 409.526C243.075 407.625 242.866 406.54 242.846 406.543C242.872 406.534 243.25 407.556 244.14 409.302C244.908 410.76 246.294 412.911 248.828 413.993C249.032 413.996 249.39 414.171 249.39 414.171C251.383 414.593 253.493 415.159 255.698 415.925C255.171 415.213 254.713 414.495 254.355 413.809C253.43 412.032 252.923 410.39 252.577 409.04C251.91 406.327 251.932 404.768 251.91 404.771C251.932 404.768 252.101 406.276 252.981 408.851C253.43 410.129 254.06 411.685 255.065 413.324C255.784 414.49 256.729 415.73 257.958 416.766C258.765 417.085 259.584 417.424 260.409 417.803C261.085 418.101 261.76 418.426 262.445 418.765C268.204 413.938 266.354 403.554 256.182 402.072C245.612 400.531 237.511 409.167 223.943 413.801C236.38 417.863 243.29 433.048 250.191 434.058Z" fill="#C5CBD5"/>
<path d="M198.027 276.559C207.371 277.92 212.076 269.982 210.521 264.025C209.513 263.427 208.517 262.859 207.532 262.342C206.933 262.026 206.343 261.736 205.748 261.449C203.938 261.421 202.223 261.834 200.779 262.471C198.683 263.393 197.042 264.59 195.734 265.595C193.145 267.648 191.796 268.925 191.785 268.908C191.802 268.925 192.97 267.559 195.396 265.302C196.621 264.2 198.191 262.862 200.338 261.733C201.315 261.22 202.472 260.789 203.746 260.519C200.871 259.267 198.119 258.354 195.593 257.714C194.29 257.771 193.019 258.033 191.936 258.323C190.419 258.745 189.153 259.296 188.191 259.867C186.238 261.019 185.691 262.296 185.676 262.268C185.694 262.305 186.023 260.967 187.896 259.537C188.812 258.828 190.058 258.116 191.61 257.525C192.011 257.387 192.418 257.243 192.856 257.114C192.701 257.082 192.546 257.051 192.397 257.022C188.025 256.238 184.517 256.247 182.157 256.373C179.789 256.502 178.552 256.715 178.552 256.698C178.552 256.715 179.723 256.391 182.043 256.063C184.356 255.747 187.844 255.443 192.337 255.9C192.936 255.954 193.549 256.029 194.179 256.129C193.886 255.851 193.629 255.567 193.397 255.279C192.469 254.122 191.959 252.971 191.596 252.027C190.914 250.126 190.705 249.041 190.685 249.046C190.711 249.035 191.086 250.057 191.979 251.806C192.747 253.261 194.133 255.411 196.667 256.494C196.87 256.497 197.228 256.672 197.228 256.672C199.219 257.094 201.332 257.662 203.534 258.429C203.007 257.717 202.549 256.999 202.191 256.31C201.266 254.533 200.759 252.891 200.413 251.541C199.748 248.831 199.771 247.272 199.748 247.275C199.771 247.272 199.937 248.777 200.819 251.352C201.266 252.632 201.899 254.186 202.901 255.825C203.62 256.991 204.565 258.231 205.793 259.267C206.601 259.589 207.423 259.928 208.248 260.304C208.921 260.602 209.596 260.927 210.284 261.265C216.04 256.439 214.192 246.055 204.018 244.573C193.451 243.032 185.347 251.671 171.779 256.302C184.216 260.367 191.126 275.552 198.027 276.559Z" fill="#C5CBD5"/>
<path d="M247.203 515.725C246.037 515.802 244.897 515.903 243.795 516.029C243.113 516.113 242.469 516.207 241.813 516.305C240.31 517.31 239.124 518.622 238.291 519.965C237.08 521.909 236.404 523.833 235.888 525.403C234.917 528.561 234.522 530.384 234.497 530.376C234.522 530.379 234.72 528.587 235.444 525.351C235.84 523.747 236.372 521.757 237.512 519.612C238.027 518.628 238.746 517.62 239.631 516.681C236.561 517.27 233.781 518.076 231.327 518.981C230.281 519.767 229.388 520.709 228.661 521.556C227.641 522.765 226.905 523.933 226.438 524.952C225.476 527.008 225.742 528.375 225.72 528.355C225.754 528.38 225.27 527.086 226.012 524.84C226.367 523.741 226.994 522.449 227.942 521.079C228.194 520.743 228.44 520.399 228.729 520.043C228.592 520.095 228.443 520.158 228.308 520.218C224.253 522.056 221.364 524.048 219.491 525.489C217.61 526.936 216.705 527.821 216.705 527.809C216.705 527.821 217.492 526.882 219.228 525.303C220.954 523.726 223.658 521.504 227.621 519.325C228.142 519.038 228.695 518.751 229.265 518.475C228.867 518.412 228.5 518.32 228.151 518.217C226.73 517.786 225.662 517.132 224.835 516.555C223.191 515.375 222.409 514.594 222.395 514.614C222.406 514.594 223.303 515.217 225.018 516.153C226.481 516.925 228.824 517.913 231.533 517.37C231.696 517.255 232.094 517.195 232.094 517.195C233.97 516.42 236.037 515.688 238.279 515.073C237.452 514.783 236.667 514.447 235.986 514.086C234.225 513.135 232.87 512.079 231.828 511.163C229.749 509.302 228.89 507.999 228.878 508.016C228.887 507.993 229.875 509.145 232.054 510.772C233.148 511.576 234.545 512.498 236.295 513.282C237.552 513.836 239.03 514.327 240.625 514.482C241.464 514.289 242.331 514.109 243.228 513.942C243.955 513.81 244.697 513.695 245.453 513.586C247.48 506.345 240.098 498.82 230.871 503.365C221.287 508.082 219.48 519.799 210.895 531.312C223.44 527.62 237.704 536.23 243.967 533.149C252.446 528.975 251.842 519.762 247.203 515.725Z" fill="#C5CBD5"/>
<path d="M397.992 378.368C396.88 379.485 395.867 380.937 395.24 382.637C395.294 383.292 395.351 383.949 395.429 384.624C395.549 385.723 395.721 386.863 395.915 388.012C400.901 391.589 409.996 390.041 412.101 380.837C413.658 374.027 402.015 362.158 402.725 349.109C393.51 360.114 382.539 364.584 380.151 374.992C377.855 385.011 386.858 390.446 393.433 386.809C393.358 386.042 393.307 385.293 393.267 384.552C393.224 383.651 393.198 382.772 393.192 381.902C392.674 380.383 391.858 379.06 391.03 377.966C389.867 376.45 388.656 375.307 387.62 374.426C385.538 372.686 384.195 371.991 384.212 371.977C384.195 371.991 385.664 372.531 387.946 374.119C389.074 374.92 390.42 375.988 391.74 377.484C392.25 378.064 392.754 378.747 393.229 379.488C393.312 377.162 393.547 374.989 393.865 372.985C393.865 372.985 393.839 372.58 393.914 372.396C393.819 369.64 392.316 367.581 391.236 366.344C389.936 364.891 389.126 364.168 389.137 364.151C389.129 364.168 390.056 364.754 391.583 366.071C392.333 366.743 393.215 367.63 393.957 368.908C394.143 369.229 394.315 369.565 394.466 369.936C394.604 369.318 394.761 368.716 394.916 368.144C396.119 363.786 397.668 360.639 398.799 358.598C399.933 356.551 400.663 355.572 400.652 355.569C400.663 355.572 400.016 356.646 399.037 358.816C398.075 360.97 396.795 364.24 395.941 368.604C395.915 368.747 395.893 368.905 395.867 369.054C396.142 368.695 396.425 368.368 396.694 368.041C397.808 366.809 398.922 365.902 399.907 365.296C401.92 364.062 403.284 364.231 403.249 364.202C403.281 364.222 401.889 364.28 400.116 365.692C399.234 366.381 398.266 367.369 397.321 368.635C396.669 369.54 395.956 370.628 395.431 371.825C395.119 374.417 394.97 377.308 395.102 380.432C395.812 379.344 396.623 378.414 397.465 377.69C399.286 376.088 401.096 375.106 402.57 374.354C405.546 372.896 407.241 372.299 407.23 372.273C407.25 372.293 405.56 373.1 402.719 374.776C401.31 375.638 399.598 376.74 397.992 378.368Z" fill="#C5CBD5"/>
<path d="M200.714 389.098C199.64 390.243 198.681 391.736 198.108 393.456C198.177 394.114 198.257 394.768 198.357 395.44C198.515 396.545 198.721 397.677 198.95 398.822C204.042 402.264 213.074 400.45 214.886 391.162C216.226 384.295 204.228 372.724 204.523 359.624C195.663 370.921 184.853 375.719 182.802 386.227C180.821 396.341 189.987 401.529 196.433 397.688C196.341 396.927 196.261 396.178 196.198 395.44C196.121 394.53 196.075 393.643 196.041 392.776C195.479 391.274 194.618 389.968 193.761 388.894C192.547 387.407 191.296 386.296 190.239 385.446C188.109 383.761 186.745 383.1 186.757 383.089C186.748 383.1 188.22 383.6 190.557 385.13C191.708 385.894 193.085 386.93 194.449 388.386C194.984 388.954 195.499 389.629 195.998 390.355C196.006 388.018 196.172 385.834 196.433 383.812C196.433 383.812 196.39 383.416 196.456 383.23C196.281 380.465 194.706 378.444 193.589 377.235C192.246 375.819 191.413 375.107 191.425 375.096C191.419 375.113 192.375 375.667 193.93 376.951C194.698 377.599 195.614 378.472 196.39 379.73C196.588 380.043 196.765 380.376 196.934 380.746C197.052 380.117 197.186 379.512 197.324 378.934C198.389 374.527 199.832 371.332 200.895 369.251C201.968 367.163 202.664 366.158 202.65 366.158C202.661 366.158 202.051 367.258 201.147 369.463C200.25 371.648 199.076 374.961 198.36 379.362C198.343 379.512 198.323 379.664 198.297 379.816C198.569 379.451 198.836 379.107 199.099 378.779C200.173 377.513 201.25 376.569 202.223 375.94C204.185 374.634 205.559 374.769 205.522 374.743C205.551 374.757 204.171 374.855 202.441 376.328C201.585 377.042 200.648 378.059 199.741 379.357C199.116 380.281 198.435 381.398 197.959 382.609C197.725 385.222 197.673 388.125 197.896 391.251C198.575 390.143 199.357 389.184 200.173 388.429C201.94 386.772 203.715 385.733 205.164 384.932C208.088 383.393 209.763 382.741 209.76 382.718C209.772 382.733 208.117 383.588 205.325 385.354C203.95 386.261 202.275 387.415 200.714 389.098Z" fill="#C5CBD5"/>
<path d="M250.999 372.79C251.769 373.362 252.697 373.933 253.768 374.318C254.375 374.341 255.005 374.384 255.646 374.441C256.17 374.487 256.7 374.542 257.233 374.611C259.879 370.399 256.113 364.341 248.991 365.567C241.597 366.839 238.33 373.91 230.449 379.649C239.693 379.549 248 387.516 252.834 386.689C259.372 385.561 260.552 379.641 258.066 376.27C257.253 376.115 256.454 375.969 255.669 375.857C255.194 375.788 254.73 375.727 254.269 375.679C253.058 376.043 252.015 376.661 251.213 377.358C250.048 378.375 249.249 379.466 248.625 380.364C247.411 382.181 246.826 383.264 246.818 383.258C246.829 383.258 247.279 382.167 248.33 380.255C248.877 379.313 249.59 378.151 250.741 376.999C251.265 376.471 251.935 375.963 252.703 375.529C250.498 375.354 248.444 375.369 246.609 375.504C245.752 375.814 244.976 376.247 244.323 376.652C243.421 377.238 242.717 377.841 242.219 378.4C241.202 379.526 241.145 380.436 241.133 380.419C241.156 380.442 241.045 379.537 241.944 378.254C242.379 377.619 243.026 376.919 243.911 376.224C244.146 376.055 244.384 375.88 244.636 375.707C244.533 375.719 244.427 375.73 244.318 375.745C241.217 376.184 238.888 376.928 237.353 377.499C235.81 378.082 235.04 378.478 235.04 378.469C235.045 378.478 235.738 378.03 237.21 377.341C238.656 376.652 240.904 375.727 244.003 375.061C244.412 374.975 244.83 374.889 245.274 374.814C245.016 374.703 244.776 374.582 244.55 374.453C243.656 373.93 243.035 373.324 242.562 372.813C241.646 371.78 241.237 371.145 241.231 371.16C241.237 371.145 241.743 371.697 242.76 372.595C243.631 373.339 245.071 374.384 247.024 374.516C247.161 374.479 247.436 374.507 247.436 374.507C248.862 374.352 250.406 374.26 252.055 374.275C251.537 373.939 251.053 373.591 250.649 373.238C249.604 372.331 248.857 371.418 248.304 370.652C247.199 369.113 246.832 368.139 246.818 368.142C246.829 368.136 247.305 369.038 248.522 370.448C249.137 371.154 249.931 371.981 250.999 372.79Z" fill="#C5CBD5"/>
<path d="M223.129 301.203C223.201 302.113 223.378 303.127 223.797 304.094C224.18 304.508 224.567 304.941 224.956 305.398C225.266 305.771 225.572 306.147 225.878 306.543C230.873 305.194 233.023 298.367 227.345 294.663C221.445 290.816 213.834 293.839 204.184 292.923C210.412 298.814 209.814 309.957 213.668 312.472C218.885 315.874 224.22 312.34 225.157 308.286C224.736 307.649 224.312 307.028 223.882 306.44C223.616 306.084 223.353 305.739 223.084 305.403C221.998 304.89 220.83 304.666 219.759 304.66C218.204 304.643 216.832 304.918 215.727 305.168C213.522 305.702 212.305 306.113 212.299 306.098C212.308 306.113 213.445 305.604 215.615 304.895C216.706 304.568 218.069 304.186 219.722 304.091C220.475 304.043 221.311 304.106 222.159 304.287C220.821 302.739 219.45 301.427 218.124 300.339C217.319 300.012 216.466 299.825 215.721 299.699C214.667 299.541 213.737 299.526 212.972 299.61C211.431 299.768 210.695 300.396 210.701 300.373C210.695 300.405 211.32 299.676 212.903 299.326C213.676 299.145 214.65 299.056 215.773 299.122C216.056 299.15 216.354 299.173 216.649 299.214C216.574 299.153 216.494 299.093 216.408 299.036C214.009 297.356 211.884 296.394 210.423 295.817C208.954 295.243 208.141 295.036 208.144 295.028C208.144 295.039 208.949 295.16 210.455 295.608C211.95 296.044 214.152 296.819 216.729 298.338C217.067 298.536 217.411 298.746 217.763 298.981C217.677 298.725 217.608 298.484 217.56 298.249C217.365 297.29 217.416 296.454 217.497 295.777C217.68 294.436 217.897 293.71 217.883 293.713C217.897 293.71 217.812 294.436 217.797 295.748C217.803 296.848 217.958 298.536 219.155 299.888C219.278 299.951 219.438 300.152 219.438 300.152C220.503 300.956 221.606 301.886 222.691 302.96C222.6 302.38 222.551 301.818 222.551 301.301C222.554 299.966 222.757 298.823 222.975 297.91C223.427 296.078 223.928 295.137 223.917 295.131C223.928 295.134 223.556 296.093 223.278 297.904C223.149 298.812 223.043 299.923 223.129 301.203Z" fill="#C5CBD5"/>
<path d="M282.755 299.756C282.606 300.683 282.528 301.749 282.689 302.848C282.949 303.382 283.201 303.942 283.448 304.522C283.651 304.993 283.843 305.472 284.035 305.966C288.969 306.27 292.565 300.207 288.193 294.66C283.651 288.895 275.905 289.386 267.205 285.292C271.566 293.193 268.388 304.048 271.354 307.821C275.369 312.914 281.137 311.166 282.961 307.456C282.72 306.684 282.474 305.926 282.213 305.202C282.05 304.76 281.89 304.335 281.721 303.913C280.836 303.041 279.811 302.438 278.823 302.073C277.394 301.548 276.059 301.367 274.98 301.249C272.818 301.057 271.592 301.06 271.592 301.042C271.598 301.06 272.766 300.93 274.94 300.945C276.022 300.976 277.374 301.048 278.92 301.496C279.63 301.703 280.389 302.039 281.128 302.501C280.263 300.523 279.301 298.763 278.333 297.247C277.663 296.655 276.918 296.193 276.266 295.82C275.326 295.315 274.473 294.993 273.748 294.827C272.282 294.476 271.455 294.855 271.466 294.835C271.455 294.864 272.199 294.344 273.748 294.519C274.504 294.597 275.427 294.83 276.449 295.266C276.704 295.386 276.97 295.51 277.239 295.648C277.176 295.562 277.119 295.475 277.059 295.392C275.235 292.929 273.502 291.272 272.288 290.222C271.062 289.168 270.361 288.691 270.367 288.688C270.358 288.694 271.077 289.082 272.362 290.021C273.642 290.948 275.492 292.447 277.514 294.801C277.78 295.111 278.05 295.432 278.322 295.783C278.299 295.501 278.296 295.243 278.307 294.987C278.35 293.974 278.597 293.156 278.831 292.513C279.315 291.244 279.688 290.595 279.67 290.595C279.688 290.595 279.436 291.287 279.115 292.582C278.86 293.678 278.608 295.404 279.39 297.141C279.49 297.244 279.587 297.494 279.587 297.494C280.386 298.648 281.182 299.934 281.93 301.355C281.99 300.755 282.073 300.175 282.196 299.664C282.508 298.341 282.969 297.273 283.387 296.44C284.238 294.769 284.922 294.003 284.911 293.991C284.922 294 284.35 294.827 283.671 296.532C283.333 297.39 282.972 298.458 282.755 299.756Z" fill="#C5CBD5"/>
<path d="M242.408 214.567C241.583 214.016 240.821 213.64 240.168 213.422C238.851 212.974 238.066 213.261 238.078 213.247C238.066 213.273 238.785 212.845 240.188 213.141C240.878 213.275 241.703 213.565 242.614 214.059C242.84 214.197 243.075 214.335 243.31 214.487C243.258 214.398 243.215 214.315 243.164 214.229C241.657 211.765 240.177 210.063 239.137 208.972C238.084 207.875 237.471 207.373 237.479 207.367C237.474 207.376 238.101 207.798 239.218 208.791C240.332 209.767 241.924 211.332 243.619 213.715C243.842 214.025 244.069 214.352 244.295 214.702C244.295 214.438 244.303 214.191 244.329 213.956C244.438 213.006 244.719 212.253 244.976 211.668C245.503 210.514 245.884 209.931 245.873 209.931C245.884 209.931 245.606 210.565 245.231 211.76C244.925 212.767 244.581 214.369 245.185 216.069C245.266 216.172 245.343 216.419 245.343 216.419C245.993 217.57 246.64 218.845 247.233 220.246C247.322 219.681 247.436 219.15 247.585 218.676C247.96 217.459 248.456 216.488 248.891 215.739C249.776 214.24 250.457 213.571 250.449 213.563C250.457 213.568 249.879 214.303 249.14 215.851C248.776 216.629 248.375 217.608 248.092 218.808C247.892 219.669 247.751 220.665 247.828 221.713C248.029 222.236 248.224 222.784 248.413 223.353C248.564 223.815 248.713 224.28 248.851 224.757C253.352 225.454 257.041 220.042 253.404 214.461C249.627 208.662 242.505 208.481 234.805 203.913C238.281 211.708 234.65 221.662 237.121 225.454C240.466 230.582 245.855 229.413 247.765 226.072C247.602 225.328 247.428 224.599 247.236 223.892C247.121 223.459 246.998 223.046 246.872 222.638C246.116 221.745 245.223 221.09 244.341 220.665C243.063 220.051 241.855 219.773 240.873 219.574C238.905 219.21 237.786 219.115 237.786 219.095C237.789 219.115 238.868 219.089 240.858 219.282C241.846 219.399 243.083 219.58 244.467 220.131C245.102 220.381 245.772 220.763 246.422 221.257C245.755 219.322 244.994 217.591 244.206 216.083C243.633 215.472 242.986 214.972 242.408 214.567Z" fill="#C5CBD5"/>
<path d="M272.725 210.793C266.219 212.472 265.746 219.354 269.83 222.087C270.248 221.817 270.666 221.562 271.084 221.315C271.597 221.016 272.106 220.732 272.602 220.474C273.329 219.716 273.853 218.84 274.245 218.031C274.778 216.891 275.082 215.843 275.282 214.973C275.677 213.236 275.677 212.245 275.689 212.248C275.677 212.251 275.8 213.259 275.557 215.071C275.434 215.969 275.211 217.077 274.735 218.295C274.555 218.766 274.308 219.268 274.019 219.77C275.394 219.113 276.731 218.593 277.991 218.177C277.991 218.177 278.209 218.042 278.34 218.022C279.915 217.141 280.663 215.648 281.061 214.646C281.519 213.443 281.697 212.754 281.705 212.762C281.697 212.754 281.634 213.48 281.322 214.76C281.155 215.401 280.903 216.187 280.385 217C280.253 217.204 280.104 217.405 279.938 217.606C280.342 217.499 280.732 217.41 281.112 217.33C284.005 216.718 286.296 216.667 287.816 216.716C289.354 216.759 290.133 216.891 290.13 216.882C290.133 216.888 289.317 216.833 287.765 216.917C286.227 217.003 283.945 217.25 281.153 218.068C281.058 218.091 280.964 218.125 280.872 218.157C281.158 218.209 281.433 218.275 281.705 218.335C282.753 218.61 283.61 218.984 284.254 219.38C285.577 220.175 285.88 221.031 285.892 220.999C285.889 221.022 285.442 220.227 284.088 219.618C283.426 219.314 282.564 219.047 281.545 218.878C280.82 218.768 279.978 218.682 279.122 218.743C277.527 219.337 275.803 220.126 274.031 221.14C274.867 221.232 275.654 221.424 276.327 221.691C277.799 222.274 278.913 223.029 279.789 223.658C281.522 224.958 282.378 225.759 282.39 225.751C282.381 225.765 281.413 225.024 279.592 223.873C278.673 223.31 277.513 222.65 276.09 222.196C275.107 221.886 273.965 221.74 272.785 221.886C272.421 222.113 272.058 222.346 271.691 222.593C271.087 222.997 270.477 223.44 269.864 223.896C269.277 227.878 272.891 232.707 278.865 231.163C283.286 230.02 286.711 219.661 294.503 216.141C285.359 214.089 279.483 209.047 272.725 210.793Z" fill="#C5CBD5"/>
<path d="M150.325 284.655C150.165 284.181 150.016 283.713 149.884 283.248C149.715 282.674 149.566 282.114 149.434 281.566C148.876 280.673 148.16 279.952 147.47 279.372C146.499 278.577 145.557 278.029 144.764 277.621C143.18 276.814 142.224 276.576 142.227 276.562C142.227 276.576 143.232 276.702 144.924 277.38C145.763 277.716 146.783 278.201 147.848 278.959C148.258 279.252 148.681 279.613 149.099 280.018C148.799 278.522 148.618 277.096 148.524 275.763C148.524 275.763 148.444 275.519 148.461 275.384C147.988 273.642 146.726 272.554 145.849 271.922C144.798 271.187 144.174 270.842 144.185 270.837C144.174 270.842 144.864 271.081 146.027 271.695C146.605 272.011 147.304 272.447 147.968 273.151C148.132 273.329 148.289 273.518 148.446 273.734C148.441 273.314 148.449 272.912 148.461 272.525C148.573 269.562 149.079 267.32 149.497 265.856C149.913 264.371 150.231 263.645 150.219 263.639C150.228 263.642 149.976 264.42 149.678 265.953C149.391 267.469 149.071 269.749 149.18 272.66C149.185 272.763 149.191 272.861 149.2 272.961C149.323 272.691 149.452 272.439 149.578 272.192C150.099 271.236 150.669 270.495 151.21 269.97C152.301 268.873 153.2 268.784 153.171 268.767C153.192 268.775 152.318 269.019 151.399 270.185C150.944 270.759 150.477 271.526 150.064 272.479C149.784 273.157 149.497 273.955 149.346 274.799C149.535 276.498 149.875 278.365 150.428 280.337C150.717 279.545 151.092 278.827 151.519 278.235C152.438 276.943 153.441 276.048 154.263 275.347C155.938 273.98 156.926 273.34 156.92 273.326C156.931 273.337 155.978 274.101 154.423 275.591C153.655 276.352 152.733 277.314 151.952 278.591C151.41 279.47 150.989 280.546 150.846 281.729C150.975 282.137 151.11 282.545 151.264 282.967C151.508 283.653 151.788 284.351 152.08 285.057C155.789 286.599 161.341 284.259 161.301 278.069C161.267 273.492 152.078 267.644 150.566 259.215C146.356 267.607 140.05 272.094 140.102 279.091C140.145 285.829 146.688 287.959 150.325 284.655Z" fill="#C5CBD5"/>
<path d="M348.142 188.77C348.383 188.334 348.626 187.909 348.872 187.49C349.179 186.982 349.488 186.485 349.794 186.02C350.101 185.015 350.195 184.019 350.204 183.143C350.207 181.92 350.055 180.889 349.889 180.057C349.548 178.412 349.17 177.585 349.184 177.579C349.176 177.591 349.66 178.372 350.149 180.002C350.39 180.818 350.631 181.857 350.708 183.114C350.742 183.602 350.728 184.145 350.682 184.711C351.558 183.468 352.452 182.356 353.325 181.369C353.325 181.369 353.454 181.145 353.551 181.067C354.505 179.529 354.545 177.906 354.488 176.867C354.402 175.63 354.287 174.961 354.296 174.966C354.287 174.961 354.514 175.604 354.746 176.83C354.854 177.45 354.946 178.231 354.831 179.175C354.803 179.411 354.76 179.652 354.697 179.913C354.992 179.618 355.273 179.345 355.553 179.086C357.684 177.111 359.539 175.908 360.799 175.185C362.071 174.441 362.761 174.154 362.755 174.148C362.761 174.154 362.074 174.521 360.834 175.374C359.608 176.227 357.835 177.585 355.865 179.678C355.799 179.75 355.736 179.821 355.668 179.896C355.925 179.796 356.177 179.709 356.421 179.623C357.383 179.325 358.225 179.204 358.901 179.21C360.287 179.207 360.862 179.764 360.859 179.738C360.865 179.755 360.195 179.319 358.855 179.491C358.199 179.572 357.394 179.787 356.495 180.157C355.865 180.436 355.144 180.789 354.465 181.268C353.385 182.575 352.28 184.105 351.215 185.853C351.934 185.5 352.649 185.268 353.305 185.15C354.728 184.894 355.925 184.96 356.882 185.044C358.789 185.256 359.8 185.492 359.806 185.48C359.803 185.492 358.729 185.365 356.805 185.325C355.839 185.322 354.64 185.351 353.302 185.69C352.383 185.928 351.389 186.385 350.482 187.105C350.27 187.476 350.061 187.854 349.857 188.248C349.519 188.894 349.187 189.574 348.861 190.263C349.897 193.889 354.691 196.1 358.987 191.785C362.165 188.592 361.017 178.202 366.045 171.32C357.79 174.229 351.066 172.983 346.203 177.86C341.53 182.557 343.766 188.546 348.142 188.77Z" fill="#C5CBD5"/>
<path d="M318.608 211.873C319.117 212.768 319.862 213.653 320.827 214.347C321.248 214.428 321.672 214.503 322.11 214.569C322.829 214.681 323.576 214.77 324.335 214.85C327.459 212.321 328.061 206.312 322.62 203.392C318.593 201.233 309.08 206.53 300.971 203.828C306.311 211.545 307.225 219.248 313.382 222.55C319.304 225.731 324.298 220.985 323.141 216.208C322.651 216.119 322.17 216.024 321.698 215.921C321.116 215.792 320.549 215.657 320.011 215.507C318.96 215.573 317.986 215.861 317.15 216.194C315.988 216.667 315.054 217.236 314.321 217.738C312.858 218.749 312.19 219.478 312.182 219.467C312.19 219.472 312.786 218.648 314.183 217.48C314.882 216.903 315.793 216.239 316.967 215.665C317.422 215.438 317.938 215.24 318.493 215.068C317.036 214.615 315.701 214.092 314.493 213.541C314.493 213.541 314.238 213.495 314.129 213.417C312.377 212.995 310.819 213.59 309.848 214.058C308.702 214.632 308.101 215.016 308.101 215.002C308.101 215.016 308.64 214.523 309.731 213.793C310.289 213.435 311.005 213.03 311.938 212.78C312.17 212.723 312.414 212.674 312.677 212.636C312.308 212.441 311.956 212.243 311.623 212.045C309.083 210.532 307.362 209.016 306.277 207.945C305.172 206.869 304.688 206.245 304.682 206.251C304.688 206.243 305.249 206.84 306.449 207.833C307.643 208.812 309.484 210.182 312.087 211.476C312.182 211.522 312.271 211.563 312.359 211.6C312.185 211.367 312.024 211.129 311.864 210.905C311.28 209.986 310.902 209.131 310.698 208.404C310.26 206.92 310.612 206.085 310.584 206.099C310.601 206.088 310.398 206.975 310.979 208.341C311.263 209.016 311.712 209.794 312.348 210.612C312.809 211.184 313.376 211.818 314.04 212.355C315.618 213.001 317.419 213.592 319.41 214.049C318.854 213.414 318.402 212.74 318.089 212.082C317.399 210.655 317.09 209.343 316.87 208.287C316.474 206.156 316.386 204.982 316.368 204.979C316.383 204.979 316.6 206.179 317.162 208.264C317.459 209.3 317.863 210.572 318.608 211.873Z" fill="#C5CBD5"/>
</g>
</g>
</svg>
